<mxfile host="app.diagrams.net" agent="Mozilla/5.0 (Windows NT 10.0; Win64; x64) AppleWebKit/537.36 (KHTML, like Gecko) Chrome/130.0.0.0 Safari/537.36" version="24.8.4">
  <diagram name="Strona-1" id="dZ5dVrQwd7zoFNDU2BPB">
    <mxGraphModel dx="1434" dy="828" grid="1" gridSize="10" guides="1" tooltips="1" connect="1" arrows="1" fold="1" page="1" pageScale="1" pageWidth="827" pageHeight="1169" math="0" shadow="0">
      <root>
        <mxCell id="0" />
        <mxCell id="1" parent="0" />
        <mxCell id="3aoIbauwGQhiMYkhEZc1-48" value="add a user" style="shape=table;startSize=30;container=1;collapsible=1;childLayout=tableLayout;fixedRows=1;rowLines=0;fontStyle=1;align=center;resizeLast=1;html=1;" vertex="1" parent="1">
          <mxGeometry x="190" y="10" width="470" height="340" as="geometry" />
        </mxCell>
        <mxCell id="3aoIbauwGQhiMYkhEZc1-49" value="" style="shape=tableRow;horizontal=0;startSize=0;swimlaneHead=0;swimlaneBody=0;fillColor=none;collapsible=0;dropTarget=0;points=[[0,0.5],[1,0.5]];portConstraint=eastwest;top=0;left=0;right=0;bottom=1;" vertex="1" parent="3aoIbauwGQhiMYkhEZc1-48">
          <mxGeometry y="30" width="470" height="30" as="geometry" />
        </mxCell>
        <mxCell id="3aoIbauwGQhiMYkhEZc1-50" value="UC01" style="shape=partialRectangle;connectable=0;fillColor=none;top=0;left=0;bottom=0;right=0;fontStyle=1;overflow=hidden;whiteSpace=wrap;html=1;" vertex="1" parent="3aoIbauwGQhiMYkhEZc1-49">
          <mxGeometry width="80" height="30" as="geometry">
            <mxRectangle width="80" height="30" as="alternateBounds" />
          </mxGeometry>
        </mxCell>
        <mxCell id="3aoIbauwGQhiMYkhEZc1-51" value="Add a user" style="shape=partialRectangle;connectable=0;fillColor=none;top=0;left=0;bottom=0;right=0;align=left;spacingLeft=6;fontStyle=5;overflow=hidden;whiteSpace=wrap;html=1;" vertex="1" parent="3aoIbauwGQhiMYkhEZc1-49">
          <mxGeometry x="80" width="390" height="30" as="geometry">
            <mxRectangle width="390" height="30" as="alternateBounds" />
          </mxGeometry>
        </mxCell>
        <mxCell id="3aoIbauwGQhiMYkhEZc1-52" value="" style="shape=tableRow;horizontal=0;startSize=0;swimlaneHead=0;swimlaneBody=0;fillColor=none;collapsible=0;dropTarget=0;points=[[0,0.5],[1,0.5]];portConstraint=eastwest;top=0;left=0;right=0;bottom=0;" vertex="1" parent="3aoIbauwGQhiMYkhEZc1-48">
          <mxGeometry y="60" width="470" height="30" as="geometry" />
        </mxCell>
        <mxCell id="3aoIbauwGQhiMYkhEZc1-53" value="actors" style="shape=partialRectangle;connectable=0;fillColor=none;top=0;left=0;bottom=0;right=0;editable=1;overflow=hidden;whiteSpace=wrap;html=1;" vertex="1" parent="3aoIbauwGQhiMYkhEZc1-52">
          <mxGeometry width="80" height="30" as="geometry">
            <mxRectangle width="80" height="30" as="alternateBounds" />
          </mxGeometry>
        </mxCell>
        <mxCell id="3aoIbauwGQhiMYkhEZc1-54" value="librarian" style="shape=partialRectangle;connectable=0;fillColor=none;top=0;left=0;bottom=0;right=0;align=left;spacingLeft=6;overflow=hidden;whiteSpace=wrap;html=1;" vertex="1" parent="3aoIbauwGQhiMYkhEZc1-52">
          <mxGeometry x="80" width="390" height="30" as="geometry">
            <mxRectangle width="390" height="30" as="alternateBounds" />
          </mxGeometry>
        </mxCell>
        <mxCell id="3aoIbauwGQhiMYkhEZc1-61" value="" style="shape=tableRow;horizontal=0;startSize=0;swimlaneHead=0;swimlaneBody=0;fillColor=none;collapsible=0;dropTarget=0;points=[[0,0.5],[1,0.5]];portConstraint=eastwest;top=0;left=0;right=0;bottom=0;" vertex="1" parent="3aoIbauwGQhiMYkhEZc1-48">
          <mxGeometry y="90" width="470" height="30" as="geometry" />
        </mxCell>
        <mxCell id="3aoIbauwGQhiMYkhEZc1-62" value="Preconditions" style="shape=partialRectangle;connectable=0;fillColor=none;top=0;left=0;bottom=0;right=0;editable=1;overflow=hidden;whiteSpace=wrap;html=1;" vertex="1" parent="3aoIbauwGQhiMYkhEZc1-61">
          <mxGeometry width="80" height="30" as="geometry">
            <mxRectangle width="80" height="30" as="alternateBounds" />
          </mxGeometry>
        </mxCell>
        <mxCell id="3aoIbauwGQhiMYkhEZc1-63" value="None" style="shape=partialRectangle;connectable=0;fillColor=none;top=0;left=0;bottom=0;right=0;align=left;spacingLeft=6;overflow=hidden;whiteSpace=wrap;html=1;" vertex="1" parent="3aoIbauwGQhiMYkhEZc1-61">
          <mxGeometry x="80" width="390" height="30" as="geometry">
            <mxRectangle width="390" height="30" as="alternateBounds" />
          </mxGeometry>
        </mxCell>
        <mxCell id="3aoIbauwGQhiMYkhEZc1-55" value="" style="shape=tableRow;horizontal=0;startSize=0;swimlaneHead=0;swimlaneBody=0;fillColor=none;collapsible=0;dropTarget=0;points=[[0,0.5],[1,0.5]];portConstraint=eastwest;top=0;left=0;right=0;bottom=0;" vertex="1" parent="3aoIbauwGQhiMYkhEZc1-48">
          <mxGeometry y="120" width="470" height="70" as="geometry" />
        </mxCell>
        <mxCell id="3aoIbauwGQhiMYkhEZc1-56" value="Main flow" style="shape=partialRectangle;connectable=0;fillColor=none;top=0;left=0;bottom=0;right=0;editable=1;overflow=hidden;whiteSpace=wrap;html=1;" vertex="1" parent="3aoIbauwGQhiMYkhEZc1-55">
          <mxGeometry width="80" height="70" as="geometry">
            <mxRectangle width="80" height="70" as="alternateBounds" />
          </mxGeometry>
        </mxCell>
        <mxCell id="3aoIbauwGQhiMYkhEZc1-57" value="1. The actor activates the program&lt;div&gt;2. The actor writes &quot;addUser &amp;lt;user_name&amp;gt;&quot;&lt;/div&gt;&lt;div&gt;3. The new User is saved in the system&lt;/div&gt;&lt;div&gt;4. Next iteration&lt;/div&gt;" style="shape=partialRectangle;connectable=0;fillColor=none;top=0;left=0;bottom=0;right=0;align=left;spacingLeft=6;overflow=hidden;whiteSpace=wrap;html=1;" vertex="1" parent="3aoIbauwGQhiMYkhEZc1-55">
          <mxGeometry x="80" width="390" height="70" as="geometry">
            <mxRectangle width="390" height="70" as="alternateBounds" />
          </mxGeometry>
        </mxCell>
        <mxCell id="3aoIbauwGQhiMYkhEZc1-58" value="" style="shape=tableRow;horizontal=0;startSize=0;swimlaneHead=0;swimlaneBody=0;fillColor=none;collapsible=0;dropTarget=0;points=[[0,0.5],[1,0.5]];portConstraint=eastwest;top=0;left=0;right=0;bottom=0;" vertex="1" parent="3aoIbauwGQhiMYkhEZc1-48">
          <mxGeometry y="190" width="470" height="70" as="geometry" />
        </mxCell>
        <mxCell id="3aoIbauwGQhiMYkhEZc1-59" value="Alternative flows" style="shape=partialRectangle;connectable=0;fillColor=none;top=0;left=0;bottom=0;right=0;editable=1;overflow=hidden;whiteSpace=wrap;html=1;" vertex="1" parent="3aoIbauwGQhiMYkhEZc1-58">
          <mxGeometry width="80" height="70" as="geometry">
            <mxRectangle width="80" height="70" as="alternateBounds" />
          </mxGeometry>
        </mxCell>
        <mxCell id="3aoIbauwGQhiMYkhEZc1-60" value="I. The actor submits invalid or incomplete data&lt;div&gt;1. The actor submits invalid or incomplete data&lt;/div&gt;&lt;div&gt;2. The error message appears&lt;/div&gt;&lt;div&gt;3. Next iteration&lt;/div&gt;" style="shape=partialRectangle;connectable=0;fillColor=none;top=0;left=0;bottom=0;right=0;align=left;spacingLeft=6;overflow=hidden;whiteSpace=wrap;html=1;" vertex="1" parent="3aoIbauwGQhiMYkhEZc1-58">
          <mxGeometry x="80" width="390" height="70" as="geometry">
            <mxRectangle width="390" height="70" as="alternateBounds" />
          </mxGeometry>
        </mxCell>
        <mxCell id="3aoIbauwGQhiMYkhEZc1-64" value="" style="shape=tableRow;horizontal=0;startSize=0;swimlaneHead=0;swimlaneBody=0;fillColor=none;collapsible=0;dropTarget=0;points=[[0,0.5],[1,0.5]];portConstraint=eastwest;top=0;left=0;right=0;bottom=0;" vertex="1" parent="3aoIbauwGQhiMYkhEZc1-48">
          <mxGeometry y="260" width="470" height="40" as="geometry" />
        </mxCell>
        <mxCell id="3aoIbauwGQhiMYkhEZc1-65" value="Postconditions" style="shape=partialRectangle;connectable=0;fillColor=none;top=0;left=0;bottom=0;right=0;editable=1;overflow=hidden;whiteSpace=wrap;html=1;" vertex="1" parent="3aoIbauwGQhiMYkhEZc1-64">
          <mxGeometry width="80" height="40" as="geometry">
            <mxRectangle width="80" height="40" as="alternateBounds" />
          </mxGeometry>
        </mxCell>
        <mxCell id="3aoIbauwGQhiMYkhEZc1-66" value="In the main flow saving the user data" style="shape=partialRectangle;connectable=0;fillColor=none;top=0;left=0;bottom=0;right=0;align=left;spacingLeft=6;overflow=hidden;whiteSpace=wrap;html=1;" vertex="1" parent="3aoIbauwGQhiMYkhEZc1-64">
          <mxGeometry x="80" width="390" height="40" as="geometry">
            <mxRectangle width="390" height="40" as="alternateBounds" />
          </mxGeometry>
        </mxCell>
        <mxCell id="3aoIbauwGQhiMYkhEZc1-67" value="" style="shape=tableRow;horizontal=0;startSize=0;swimlaneHead=0;swimlaneBody=0;fillColor=none;collapsible=0;dropTarget=0;points=[[0,0.5],[1,0.5]];portConstraint=eastwest;top=0;left=0;right=0;bottom=0;" vertex="1" parent="3aoIbauwGQhiMYkhEZc1-48">
          <mxGeometry y="300" width="470" height="40" as="geometry" />
        </mxCell>
        <mxCell id="3aoIbauwGQhiMYkhEZc1-68" value="Exceptions" style="shape=partialRectangle;connectable=0;fillColor=none;top=0;left=0;bottom=0;right=0;editable=1;overflow=hidden;whiteSpace=wrap;html=1;" vertex="1" parent="3aoIbauwGQhiMYkhEZc1-67">
          <mxGeometry width="80" height="40" as="geometry">
            <mxRectangle width="80" height="40" as="alternateBounds" />
          </mxGeometry>
        </mxCell>
        <mxCell id="3aoIbauwGQhiMYkhEZc1-69" value="Submition of invalid or incomplete data" style="shape=partialRectangle;connectable=0;fillColor=none;top=0;left=0;bottom=0;right=0;align=left;spacingLeft=6;overflow=hidden;whiteSpace=wrap;html=1;" vertex="1" parent="3aoIbauwGQhiMYkhEZc1-67">
          <mxGeometry x="80" width="390" height="40" as="geometry">
            <mxRectangle width="390" height="40" as="alternateBounds" />
          </mxGeometry>
        </mxCell>
        <mxCell id="3aoIbauwGQhiMYkhEZc1-70" value="Add a book" style="shape=table;startSize=30;container=1;collapsible=1;childLayout=tableLayout;fixedRows=1;rowLines=0;fontStyle=1;align=center;resizeLast=1;html=1;" vertex="1" parent="1">
          <mxGeometry x="190" y="382" width="470" height="340" as="geometry" />
        </mxCell>
        <mxCell id="3aoIbauwGQhiMYkhEZc1-71" value="" style="shape=tableRow;horizontal=0;startSize=0;swimlaneHead=0;swimlaneBody=0;fillColor=none;collapsible=0;dropTarget=0;points=[[0,0.5],[1,0.5]];portConstraint=eastwest;top=0;left=0;right=0;bottom=1;" vertex="1" parent="3aoIbauwGQhiMYkhEZc1-70">
          <mxGeometry y="30" width="470" height="30" as="geometry" />
        </mxCell>
        <mxCell id="3aoIbauwGQhiMYkhEZc1-72" value="UC02" style="shape=partialRectangle;connectable=0;fillColor=none;top=0;left=0;bottom=0;right=0;fontStyle=1;overflow=hidden;whiteSpace=wrap;html=1;" vertex="1" parent="3aoIbauwGQhiMYkhEZc1-71">
          <mxGeometry width="80" height="30" as="geometry">
            <mxRectangle width="80" height="30" as="alternateBounds" />
          </mxGeometry>
        </mxCell>
        <mxCell id="3aoIbauwGQhiMYkhEZc1-73" value="Add a book" style="shape=partialRectangle;connectable=0;fillColor=none;top=0;left=0;bottom=0;right=0;align=left;spacingLeft=6;fontStyle=5;overflow=hidden;whiteSpace=wrap;html=1;" vertex="1" parent="3aoIbauwGQhiMYkhEZc1-71">
          <mxGeometry x="80" width="390" height="30" as="geometry">
            <mxRectangle width="390" height="30" as="alternateBounds" />
          </mxGeometry>
        </mxCell>
        <mxCell id="3aoIbauwGQhiMYkhEZc1-74" value="" style="shape=tableRow;horizontal=0;startSize=0;swimlaneHead=0;swimlaneBody=0;fillColor=none;collapsible=0;dropTarget=0;points=[[0,0.5],[1,0.5]];portConstraint=eastwest;top=0;left=0;right=0;bottom=0;" vertex="1" parent="3aoIbauwGQhiMYkhEZc1-70">
          <mxGeometry y="60" width="470" height="30" as="geometry" />
        </mxCell>
        <mxCell id="3aoIbauwGQhiMYkhEZc1-75" value="actors" style="shape=partialRectangle;connectable=0;fillColor=none;top=0;left=0;bottom=0;right=0;editable=1;overflow=hidden;whiteSpace=wrap;html=1;" vertex="1" parent="3aoIbauwGQhiMYkhEZc1-74">
          <mxGeometry width="80" height="30" as="geometry">
            <mxRectangle width="80" height="30" as="alternateBounds" />
          </mxGeometry>
        </mxCell>
        <mxCell id="3aoIbauwGQhiMYkhEZc1-76" value="librarian" style="shape=partialRectangle;connectable=0;fillColor=none;top=0;left=0;bottom=0;right=0;align=left;spacingLeft=6;overflow=hidden;whiteSpace=wrap;html=1;" vertex="1" parent="3aoIbauwGQhiMYkhEZc1-74">
          <mxGeometry x="80" width="390" height="30" as="geometry">
            <mxRectangle width="390" height="30" as="alternateBounds" />
          </mxGeometry>
        </mxCell>
        <mxCell id="3aoIbauwGQhiMYkhEZc1-77" value="" style="shape=tableRow;horizontal=0;startSize=0;swimlaneHead=0;swimlaneBody=0;fillColor=none;collapsible=0;dropTarget=0;points=[[0,0.5],[1,0.5]];portConstraint=eastwest;top=0;left=0;right=0;bottom=0;" vertex="1" parent="3aoIbauwGQhiMYkhEZc1-70">
          <mxGeometry y="90" width="470" height="30" as="geometry" />
        </mxCell>
        <mxCell id="3aoIbauwGQhiMYkhEZc1-78" value="Preconditions" style="shape=partialRectangle;connectable=0;fillColor=none;top=0;left=0;bottom=0;right=0;editable=1;overflow=hidden;whiteSpace=wrap;html=1;" vertex="1" parent="3aoIbauwGQhiMYkhEZc1-77">
          <mxGeometry width="80" height="30" as="geometry">
            <mxRectangle width="80" height="30" as="alternateBounds" />
          </mxGeometry>
        </mxCell>
        <mxCell id="3aoIbauwGQhiMYkhEZc1-79" value="None" style="shape=partialRectangle;connectable=0;fillColor=none;top=0;left=0;bottom=0;right=0;align=left;spacingLeft=6;overflow=hidden;whiteSpace=wrap;html=1;" vertex="1" parent="3aoIbauwGQhiMYkhEZc1-77">
          <mxGeometry x="80" width="390" height="30" as="geometry">
            <mxRectangle width="390" height="30" as="alternateBounds" />
          </mxGeometry>
        </mxCell>
        <mxCell id="3aoIbauwGQhiMYkhEZc1-80" value="" style="shape=tableRow;horizontal=0;startSize=0;swimlaneHead=0;swimlaneBody=0;fillColor=none;collapsible=0;dropTarget=0;points=[[0,0.5],[1,0.5]];portConstraint=eastwest;top=0;left=0;right=0;bottom=0;" vertex="1" parent="3aoIbauwGQhiMYkhEZc1-70">
          <mxGeometry y="120" width="470" height="70" as="geometry" />
        </mxCell>
        <mxCell id="3aoIbauwGQhiMYkhEZc1-81" value="Main flow" style="shape=partialRectangle;connectable=0;fillColor=none;top=0;left=0;bottom=0;right=0;editable=1;overflow=hidden;whiteSpace=wrap;html=1;" vertex="1" parent="3aoIbauwGQhiMYkhEZc1-80">
          <mxGeometry width="80" height="70" as="geometry">
            <mxRectangle width="80" height="70" as="alternateBounds" />
          </mxGeometry>
        </mxCell>
        <mxCell id="3aoIbauwGQhiMYkhEZc1-82" value="1. The actor activates the program&lt;div&gt;2. The actor writes &quot;addBook &amp;lt;book_author&amp;gt; &amp;lt;book_title&amp;gt;&quot;&lt;/div&gt;&lt;div&gt;3. The new Book is saved in the system&lt;/div&gt;&lt;div&gt;4. Next iteration&lt;/div&gt;" style="shape=partialRectangle;connectable=0;fillColor=none;top=0;left=0;bottom=0;right=0;align=left;spacingLeft=6;overflow=hidden;whiteSpace=wrap;html=1;" vertex="1" parent="3aoIbauwGQhiMYkhEZc1-80">
          <mxGeometry x="80" width="390" height="70" as="geometry">
            <mxRectangle width="390" height="70" as="alternateBounds" />
          </mxGeometry>
        </mxCell>
        <mxCell id="3aoIbauwGQhiMYkhEZc1-83" value="" style="shape=tableRow;horizontal=0;startSize=0;swimlaneHead=0;swimlaneBody=0;fillColor=none;collapsible=0;dropTarget=0;points=[[0,0.5],[1,0.5]];portConstraint=eastwest;top=0;left=0;right=0;bottom=0;" vertex="1" parent="3aoIbauwGQhiMYkhEZc1-70">
          <mxGeometry y="190" width="470" height="70" as="geometry" />
        </mxCell>
        <mxCell id="3aoIbauwGQhiMYkhEZc1-84" value="Alternative flows" style="shape=partialRectangle;connectable=0;fillColor=none;top=0;left=0;bottom=0;right=0;editable=1;overflow=hidden;whiteSpace=wrap;html=1;" vertex="1" parent="3aoIbauwGQhiMYkhEZc1-83">
          <mxGeometry width="80" height="70" as="geometry">
            <mxRectangle width="80" height="70" as="alternateBounds" />
          </mxGeometry>
        </mxCell>
        <mxCell id="3aoIbauwGQhiMYkhEZc1-85" value="I. The actor submits invalid or incomplete data&lt;div&gt;1. The actor submits invalid or incomplete data&lt;/div&gt;&lt;div&gt;2. The error message appears&lt;/div&gt;&lt;div&gt;3. Next iteration&lt;/div&gt;" style="shape=partialRectangle;connectable=0;fillColor=none;top=0;left=0;bottom=0;right=0;align=left;spacingLeft=6;overflow=hidden;whiteSpace=wrap;html=1;" vertex="1" parent="3aoIbauwGQhiMYkhEZc1-83">
          <mxGeometry x="80" width="390" height="70" as="geometry">
            <mxRectangle width="390" height="70" as="alternateBounds" />
          </mxGeometry>
        </mxCell>
        <mxCell id="3aoIbauwGQhiMYkhEZc1-86" value="" style="shape=tableRow;horizontal=0;startSize=0;swimlaneHead=0;swimlaneBody=0;fillColor=none;collapsible=0;dropTarget=0;points=[[0,0.5],[1,0.5]];portConstraint=eastwest;top=0;left=0;right=0;bottom=0;" vertex="1" parent="3aoIbauwGQhiMYkhEZc1-70">
          <mxGeometry y="260" width="470" height="40" as="geometry" />
        </mxCell>
        <mxCell id="3aoIbauwGQhiMYkhEZc1-87" value="Postconditions" style="shape=partialRectangle;connectable=0;fillColor=none;top=0;left=0;bottom=0;right=0;editable=1;overflow=hidden;whiteSpace=wrap;html=1;" vertex="1" parent="3aoIbauwGQhiMYkhEZc1-86">
          <mxGeometry width="80" height="40" as="geometry">
            <mxRectangle width="80" height="40" as="alternateBounds" />
          </mxGeometry>
        </mxCell>
        <mxCell id="3aoIbauwGQhiMYkhEZc1-88" value="In the main flow saving the book data" style="shape=partialRectangle;connectable=0;fillColor=none;top=0;left=0;bottom=0;right=0;align=left;spacingLeft=6;overflow=hidden;whiteSpace=wrap;html=1;" vertex="1" parent="3aoIbauwGQhiMYkhEZc1-86">
          <mxGeometry x="80" width="390" height="40" as="geometry">
            <mxRectangle width="390" height="40" as="alternateBounds" />
          </mxGeometry>
        </mxCell>
        <mxCell id="3aoIbauwGQhiMYkhEZc1-89" value="" style="shape=tableRow;horizontal=0;startSize=0;swimlaneHead=0;swimlaneBody=0;fillColor=none;collapsible=0;dropTarget=0;points=[[0,0.5],[1,0.5]];portConstraint=eastwest;top=0;left=0;right=0;bottom=0;" vertex="1" parent="3aoIbauwGQhiMYkhEZc1-70">
          <mxGeometry y="300" width="470" height="40" as="geometry" />
        </mxCell>
        <mxCell id="3aoIbauwGQhiMYkhEZc1-90" value="Exceptions" style="shape=partialRectangle;connectable=0;fillColor=none;top=0;left=0;bottom=0;right=0;editable=1;overflow=hidden;whiteSpace=wrap;html=1;" vertex="1" parent="3aoIbauwGQhiMYkhEZc1-89">
          <mxGeometry width="80" height="40" as="geometry">
            <mxRectangle width="80" height="40" as="alternateBounds" />
          </mxGeometry>
        </mxCell>
        <mxCell id="3aoIbauwGQhiMYkhEZc1-91" value="Submition of invalid or incomplete data" style="shape=partialRectangle;connectable=0;fillColor=none;top=0;left=0;bottom=0;right=0;align=left;spacingLeft=6;overflow=hidden;whiteSpace=wrap;html=1;" vertex="1" parent="3aoIbauwGQhiMYkhEZc1-89">
          <mxGeometry x="80" width="390" height="40" as="geometry">
            <mxRectangle width="390" height="40" as="alternateBounds" />
          </mxGeometry>
        </mxCell>
        <mxCell id="3aoIbauwGQhiMYkhEZc1-114" value="Print Book info" style="shape=table;startSize=30;container=1;collapsible=1;childLayout=tableLayout;fixedRows=1;rowLines=0;fontStyle=1;align=center;resizeLast=1;html=1;" vertex="1" parent="1">
          <mxGeometry x="190" y="770" width="470" height="400" as="geometry" />
        </mxCell>
        <mxCell id="3aoIbauwGQhiMYkhEZc1-115" value="" style="shape=tableRow;horizontal=0;startSize=0;swimlaneHead=0;swimlaneBody=0;fillColor=none;collapsible=0;dropTarget=0;points=[[0,0.5],[1,0.5]];portConstraint=eastwest;top=0;left=0;right=0;bottom=1;" vertex="1" parent="3aoIbauwGQhiMYkhEZc1-114">
          <mxGeometry y="30" width="470" height="30" as="geometry" />
        </mxCell>
        <mxCell id="3aoIbauwGQhiMYkhEZc1-116" value="UC03" style="shape=partialRectangle;connectable=0;fillColor=none;top=0;left=0;bottom=0;right=0;fontStyle=1;overflow=hidden;whiteSpace=wrap;html=1;" vertex="1" parent="3aoIbauwGQhiMYkhEZc1-115">
          <mxGeometry width="80" height="30" as="geometry">
            <mxRectangle width="80" height="30" as="alternateBounds" />
          </mxGeometry>
        </mxCell>
        <mxCell id="3aoIbauwGQhiMYkhEZc1-117" value="Print Book info" style="shape=partialRectangle;connectable=0;fillColor=none;top=0;left=0;bottom=0;right=0;align=left;spacingLeft=6;fontStyle=5;overflow=hidden;whiteSpace=wrap;html=1;" vertex="1" parent="3aoIbauwGQhiMYkhEZc1-115">
          <mxGeometry x="80" width="390" height="30" as="geometry">
            <mxRectangle width="390" height="30" as="alternateBounds" />
          </mxGeometry>
        </mxCell>
        <mxCell id="3aoIbauwGQhiMYkhEZc1-118" value="" style="shape=tableRow;horizontal=0;startSize=0;swimlaneHead=0;swimlaneBody=0;fillColor=none;collapsible=0;dropTarget=0;points=[[0,0.5],[1,0.5]];portConstraint=eastwest;top=0;left=0;right=0;bottom=0;" vertex="1" parent="3aoIbauwGQhiMYkhEZc1-114">
          <mxGeometry y="60" width="470" height="30" as="geometry" />
        </mxCell>
        <mxCell id="3aoIbauwGQhiMYkhEZc1-119" value="actors" style="shape=partialRectangle;connectable=0;fillColor=none;top=0;left=0;bottom=0;right=0;editable=1;overflow=hidden;whiteSpace=wrap;html=1;" vertex="1" parent="3aoIbauwGQhiMYkhEZc1-118">
          <mxGeometry width="80" height="30" as="geometry">
            <mxRectangle width="80" height="30" as="alternateBounds" />
          </mxGeometry>
        </mxCell>
        <mxCell id="3aoIbauwGQhiMYkhEZc1-120" value="librarian" style="shape=partialRectangle;connectable=0;fillColor=none;top=0;left=0;bottom=0;right=0;align=left;spacingLeft=6;overflow=hidden;whiteSpace=wrap;html=1;" vertex="1" parent="3aoIbauwGQhiMYkhEZc1-118">
          <mxGeometry x="80" width="390" height="30" as="geometry">
            <mxRectangle width="390" height="30" as="alternateBounds" />
          </mxGeometry>
        </mxCell>
        <mxCell id="3aoIbauwGQhiMYkhEZc1-121" value="" style="shape=tableRow;horizontal=0;startSize=0;swimlaneHead=0;swimlaneBody=0;fillColor=none;collapsible=0;dropTarget=0;points=[[0,0.5],[1,0.5]];portConstraint=eastwest;top=0;left=0;right=0;bottom=0;" vertex="1" parent="3aoIbauwGQhiMYkhEZc1-114">
          <mxGeometry y="90" width="470" height="30" as="geometry" />
        </mxCell>
        <mxCell id="3aoIbauwGQhiMYkhEZc1-122" value="Preconditions" style="shape=partialRectangle;connectable=0;fillColor=none;top=0;left=0;bottom=0;right=0;editable=1;overflow=hidden;whiteSpace=wrap;html=1;" vertex="1" parent="3aoIbauwGQhiMYkhEZc1-121">
          <mxGeometry width="80" height="30" as="geometry">
            <mxRectangle width="80" height="30" as="alternateBounds" />
          </mxGeometry>
        </mxCell>
        <mxCell id="3aoIbauwGQhiMYkhEZc1-123" value="Book needs to have been created" style="shape=partialRectangle;connectable=0;fillColor=none;top=0;left=0;bottom=0;right=0;align=left;spacingLeft=6;overflow=hidden;whiteSpace=wrap;html=1;" vertex="1" parent="3aoIbauwGQhiMYkhEZc1-121">
          <mxGeometry x="80" width="390" height="30" as="geometry">
            <mxRectangle width="390" height="30" as="alternateBounds" />
          </mxGeometry>
        </mxCell>
        <mxCell id="3aoIbauwGQhiMYkhEZc1-124" value="" style="shape=tableRow;horizontal=0;startSize=0;swimlaneHead=0;swimlaneBody=0;fillColor=none;collapsible=0;dropTarget=0;points=[[0,0.5],[1,0.5]];portConstraint=eastwest;top=0;left=0;right=0;bottom=0;" vertex="1" parent="3aoIbauwGQhiMYkhEZc1-114">
          <mxGeometry y="120" width="470" height="70" as="geometry" />
        </mxCell>
        <mxCell id="3aoIbauwGQhiMYkhEZc1-125" value="Main flow" style="shape=partialRectangle;connectable=0;fillColor=none;top=0;left=0;bottom=0;right=0;editable=1;overflow=hidden;whiteSpace=wrap;html=1;" vertex="1" parent="3aoIbauwGQhiMYkhEZc1-124">
          <mxGeometry width="80" height="70" as="geometry">
            <mxRectangle width="80" height="70" as="alternateBounds" />
          </mxGeometry>
        </mxCell>
        <mxCell id="3aoIbauwGQhiMYkhEZc1-126" value="1. The actor activates the program&lt;div&gt;2. The actor writes &quot;getBook &amp;lt;book_id&amp;gt;&quot;&lt;/div&gt;&lt;div&gt;3. The book data is displayed&lt;/div&gt;&lt;div&gt;4. Next iteration&lt;/div&gt;" style="shape=partialRectangle;connectable=0;fillColor=none;top=0;left=0;bottom=0;right=0;align=left;spacingLeft=6;overflow=hidden;whiteSpace=wrap;html=1;" vertex="1" parent="3aoIbauwGQhiMYkhEZc1-124">
          <mxGeometry x="80" width="390" height="70" as="geometry">
            <mxRectangle width="390" height="70" as="alternateBounds" />
          </mxGeometry>
        </mxCell>
        <mxCell id="3aoIbauwGQhiMYkhEZc1-127" value="" style="shape=tableRow;horizontal=0;startSize=0;swimlaneHead=0;swimlaneBody=0;fillColor=none;collapsible=0;dropTarget=0;points=[[0,0.5],[1,0.5]];portConstraint=eastwest;top=0;left=0;right=0;bottom=0;" vertex="1" parent="3aoIbauwGQhiMYkhEZc1-114">
          <mxGeometry y="190" width="470" height="130" as="geometry" />
        </mxCell>
        <mxCell id="3aoIbauwGQhiMYkhEZc1-128" value="Alternative flows" style="shape=partialRectangle;connectable=0;fillColor=none;top=0;left=0;bottom=0;right=0;editable=1;overflow=hidden;whiteSpace=wrap;html=1;" vertex="1" parent="3aoIbauwGQhiMYkhEZc1-127">
          <mxGeometry width="80" height="130" as="geometry">
            <mxRectangle width="80" height="130" as="alternateBounds" />
          </mxGeometry>
        </mxCell>
        <mxCell id="3aoIbauwGQhiMYkhEZc1-129" value="I. The actor submits invalid or incomplete data&lt;div&gt;1. The actor submits invalid or incomplete data&lt;/div&gt;&lt;div&gt;2. The error message appears&lt;/div&gt;&lt;div&gt;3. Next iteration&lt;/div&gt;&lt;div&gt;II. The book doesn&#39;t exst&lt;/div&gt;&lt;div&gt;1. The actor tries printing a non existent book&#39;s info&lt;/div&gt;&lt;div&gt;2. error message appears&lt;/div&gt;&lt;div&gt;3. next iteration&lt;/div&gt;" style="shape=partialRectangle;connectable=0;fillColor=none;top=0;left=0;bottom=0;right=0;align=left;spacingLeft=6;overflow=hidden;whiteSpace=wrap;html=1;" vertex="1" parent="3aoIbauwGQhiMYkhEZc1-127">
          <mxGeometry x="80" width="390" height="130" as="geometry">
            <mxRectangle width="390" height="130" as="alternateBounds" />
          </mxGeometry>
        </mxCell>
        <mxCell id="3aoIbauwGQhiMYkhEZc1-130" value="" style="shape=tableRow;horizontal=0;startSize=0;swimlaneHead=0;swimlaneBody=0;fillColor=none;collapsible=0;dropTarget=0;points=[[0,0.5],[1,0.5]];portConstraint=eastwest;top=0;left=0;right=0;bottom=0;" vertex="1" parent="3aoIbauwGQhiMYkhEZc1-114">
          <mxGeometry y="320" width="470" height="40" as="geometry" />
        </mxCell>
        <mxCell id="3aoIbauwGQhiMYkhEZc1-131" value="Postconditions" style="shape=partialRectangle;connectable=0;fillColor=none;top=0;left=0;bottom=0;right=0;editable=1;overflow=hidden;whiteSpace=wrap;html=1;" vertex="1" parent="3aoIbauwGQhiMYkhEZc1-130">
          <mxGeometry width="80" height="40" as="geometry">
            <mxRectangle width="80" height="40" as="alternateBounds" />
          </mxGeometry>
        </mxCell>
        <mxCell id="3aoIbauwGQhiMYkhEZc1-132" value="No changes" style="shape=partialRectangle;connectable=0;fillColor=none;top=0;left=0;bottom=0;right=0;align=left;spacingLeft=6;overflow=hidden;whiteSpace=wrap;html=1;" vertex="1" parent="3aoIbauwGQhiMYkhEZc1-130">
          <mxGeometry x="80" width="390" height="40" as="geometry">
            <mxRectangle width="390" height="40" as="alternateBounds" />
          </mxGeometry>
        </mxCell>
        <mxCell id="3aoIbauwGQhiMYkhEZc1-133" value="" style="shape=tableRow;horizontal=0;startSize=0;swimlaneHead=0;swimlaneBody=0;fillColor=none;collapsible=0;dropTarget=0;points=[[0,0.5],[1,0.5]];portConstraint=eastwest;top=0;left=0;right=0;bottom=0;" vertex="1" parent="3aoIbauwGQhiMYkhEZc1-114">
          <mxGeometry y="360" width="470" height="40" as="geometry" />
        </mxCell>
        <mxCell id="3aoIbauwGQhiMYkhEZc1-134" value="Exceptions" style="shape=partialRectangle;connectable=0;fillColor=none;top=0;left=0;bottom=0;right=0;editable=1;overflow=hidden;whiteSpace=wrap;html=1;" vertex="1" parent="3aoIbauwGQhiMYkhEZc1-133">
          <mxGeometry width="80" height="40" as="geometry">
            <mxRectangle width="80" height="40" as="alternateBounds" />
          </mxGeometry>
        </mxCell>
        <mxCell id="3aoIbauwGQhiMYkhEZc1-135" value="Submition of invalid or incomplete data" style="shape=partialRectangle;connectable=0;fillColor=none;top=0;left=0;bottom=0;right=0;align=left;spacingLeft=6;overflow=hidden;whiteSpace=wrap;html=1;" vertex="1" parent="3aoIbauwGQhiMYkhEZc1-133">
          <mxGeometry x="80" width="390" height="40" as="geometry">
            <mxRectangle width="390" height="40" as="alternateBounds" />
          </mxGeometry>
        </mxCell>
        <mxCell id="3aoIbauwGQhiMYkhEZc1-136" value="Print User info" style="shape=table;startSize=30;container=1;collapsible=1;childLayout=tableLayout;fixedRows=1;rowLines=0;fontStyle=1;align=center;resizeLast=1;html=1;" vertex="1" parent="1">
          <mxGeometry x="711" y="11" width="470" height="419" as="geometry" />
        </mxCell>
        <mxCell id="3aoIbauwGQhiMYkhEZc1-137" value="" style="shape=tableRow;horizontal=0;startSize=0;swimlaneHead=0;swimlaneBody=0;fillColor=none;collapsible=0;dropTarget=0;points=[[0,0.5],[1,0.5]];portConstraint=eastwest;top=0;left=0;right=0;bottom=1;" vertex="1" parent="3aoIbauwGQhiMYkhEZc1-136">
          <mxGeometry y="30" width="470" height="30" as="geometry" />
        </mxCell>
        <mxCell id="3aoIbauwGQhiMYkhEZc1-138" value="UC04" style="shape=partialRectangle;connectable=0;fillColor=none;top=0;left=0;bottom=0;right=0;fontStyle=1;overflow=hidden;whiteSpace=wrap;html=1;" vertex="1" parent="3aoIbauwGQhiMYkhEZc1-137">
          <mxGeometry width="80" height="30" as="geometry">
            <mxRectangle width="80" height="30" as="alternateBounds" />
          </mxGeometry>
        </mxCell>
        <mxCell id="3aoIbauwGQhiMYkhEZc1-139" value="Print User info" style="shape=partialRectangle;connectable=0;fillColor=none;top=0;left=0;bottom=0;right=0;align=left;spacingLeft=6;fontStyle=5;overflow=hidden;whiteSpace=wrap;html=1;" vertex="1" parent="3aoIbauwGQhiMYkhEZc1-137">
          <mxGeometry x="80" width="390" height="30" as="geometry">
            <mxRectangle width="390" height="30" as="alternateBounds" />
          </mxGeometry>
        </mxCell>
        <mxCell id="3aoIbauwGQhiMYkhEZc1-140" value="" style="shape=tableRow;horizontal=0;startSize=0;swimlaneHead=0;swimlaneBody=0;fillColor=none;collapsible=0;dropTarget=0;points=[[0,0.5],[1,0.5]];portConstraint=eastwest;top=0;left=0;right=0;bottom=0;" vertex="1" parent="3aoIbauwGQhiMYkhEZc1-136">
          <mxGeometry y="60" width="470" height="30" as="geometry" />
        </mxCell>
        <mxCell id="3aoIbauwGQhiMYkhEZc1-141" value="actors" style="shape=partialRectangle;connectable=0;fillColor=none;top=0;left=0;bottom=0;right=0;editable=1;overflow=hidden;whiteSpace=wrap;html=1;" vertex="1" parent="3aoIbauwGQhiMYkhEZc1-140">
          <mxGeometry width="80" height="30" as="geometry">
            <mxRectangle width="80" height="30" as="alternateBounds" />
          </mxGeometry>
        </mxCell>
        <mxCell id="3aoIbauwGQhiMYkhEZc1-142" value="librarian" style="shape=partialRectangle;connectable=0;fillColor=none;top=0;left=0;bottom=0;right=0;align=left;spacingLeft=6;overflow=hidden;whiteSpace=wrap;html=1;" vertex="1" parent="3aoIbauwGQhiMYkhEZc1-140">
          <mxGeometry x="80" width="390" height="30" as="geometry">
            <mxRectangle width="390" height="30" as="alternateBounds" />
          </mxGeometry>
        </mxCell>
        <mxCell id="3aoIbauwGQhiMYkhEZc1-143" value="" style="shape=tableRow;horizontal=0;startSize=0;swimlaneHead=0;swimlaneBody=0;fillColor=none;collapsible=0;dropTarget=0;points=[[0,0.5],[1,0.5]];portConstraint=eastwest;top=0;left=0;right=0;bottom=0;" vertex="1" parent="3aoIbauwGQhiMYkhEZc1-136">
          <mxGeometry y="90" width="470" height="30" as="geometry" />
        </mxCell>
        <mxCell id="3aoIbauwGQhiMYkhEZc1-144" value="Preconditions" style="shape=partialRectangle;connectable=0;fillColor=none;top=0;left=0;bottom=0;right=0;editable=1;overflow=hidden;whiteSpace=wrap;html=1;" vertex="1" parent="3aoIbauwGQhiMYkhEZc1-143">
          <mxGeometry width="80" height="30" as="geometry">
            <mxRectangle width="80" height="30" as="alternateBounds" />
          </mxGeometry>
        </mxCell>
        <mxCell id="3aoIbauwGQhiMYkhEZc1-145" value="User needs to have been created" style="shape=partialRectangle;connectable=0;fillColor=none;top=0;left=0;bottom=0;right=0;align=left;spacingLeft=6;overflow=hidden;whiteSpace=wrap;html=1;" vertex="1" parent="3aoIbauwGQhiMYkhEZc1-143">
          <mxGeometry x="80" width="390" height="30" as="geometry">
            <mxRectangle width="390" height="30" as="alternateBounds" />
          </mxGeometry>
        </mxCell>
        <mxCell id="3aoIbauwGQhiMYkhEZc1-146" value="" style="shape=tableRow;horizontal=0;startSize=0;swimlaneHead=0;swimlaneBody=0;fillColor=none;collapsible=0;dropTarget=0;points=[[0,0.5],[1,0.5]];portConstraint=eastwest;top=0;left=0;right=0;bottom=0;" vertex="1" parent="3aoIbauwGQhiMYkhEZc1-136">
          <mxGeometry y="120" width="470" height="70" as="geometry" />
        </mxCell>
        <mxCell id="3aoIbauwGQhiMYkhEZc1-147" value="Main flow" style="shape=partialRectangle;connectable=0;fillColor=none;top=0;left=0;bottom=0;right=0;editable=1;overflow=hidden;whiteSpace=wrap;html=1;" vertex="1" parent="3aoIbauwGQhiMYkhEZc1-146">
          <mxGeometry width="80" height="70" as="geometry">
            <mxRectangle width="80" height="70" as="alternateBounds" />
          </mxGeometry>
        </mxCell>
        <mxCell id="3aoIbauwGQhiMYkhEZc1-148" value="1. The actor activates the program&lt;div&gt;2. The actor writes &quot;getUser &amp;lt;user_id&amp;gt;&quot;&lt;/div&gt;&lt;div&gt;3. The user data is displayed&lt;/div&gt;&lt;div&gt;4. Next iteration&lt;/div&gt;" style="shape=partialRectangle;connectable=0;fillColor=none;top=0;left=0;bottom=0;right=0;align=left;spacingLeft=6;overflow=hidden;whiteSpace=wrap;html=1;" vertex="1" parent="3aoIbauwGQhiMYkhEZc1-146">
          <mxGeometry x="80" width="390" height="70" as="geometry">
            <mxRectangle width="390" height="70" as="alternateBounds" />
          </mxGeometry>
        </mxCell>
        <mxCell id="3aoIbauwGQhiMYkhEZc1-149" value="" style="shape=tableRow;horizontal=0;startSize=0;swimlaneHead=0;swimlaneBody=0;fillColor=none;collapsible=0;dropTarget=0;points=[[0,0.5],[1,0.5]];portConstraint=eastwest;top=0;left=0;right=0;bottom=0;" vertex="1" parent="3aoIbauwGQhiMYkhEZc1-136">
          <mxGeometry y="190" width="470" height="159" as="geometry" />
        </mxCell>
        <mxCell id="3aoIbauwGQhiMYkhEZc1-150" value="Alternative flows" style="shape=partialRectangle;connectable=0;fillColor=none;top=0;left=0;bottom=0;right=0;editable=1;overflow=hidden;whiteSpace=wrap;html=1;" vertex="1" parent="3aoIbauwGQhiMYkhEZc1-149">
          <mxGeometry width="80" height="159" as="geometry">
            <mxRectangle width="80" height="159" as="alternateBounds" />
          </mxGeometry>
        </mxCell>
        <mxCell id="3aoIbauwGQhiMYkhEZc1-151" value="I. The actor submits invalid or incomplete data&lt;div&gt;1. The actor submits invalid or incomplete data&lt;/div&gt;&lt;div&gt;2. The error message appears&lt;/div&gt;&lt;div&gt;3. Next iteration&lt;/div&gt;&lt;div&gt;&lt;br&gt;&lt;/div&gt;&lt;div&gt;&lt;div&gt;II. The user doesn&#39;t exist&lt;/div&gt;&lt;div&gt;1. The actor tries print a non existent user&#39;s info&lt;/div&gt;&lt;div&gt;2. error message appears&lt;/div&gt;&lt;div&gt;3. next iteration&lt;/div&gt;&lt;/div&gt;" style="shape=partialRectangle;connectable=0;fillColor=none;top=0;left=0;bottom=0;right=0;align=left;spacingLeft=6;overflow=hidden;whiteSpace=wrap;html=1;" vertex="1" parent="3aoIbauwGQhiMYkhEZc1-149">
          <mxGeometry x="80" width="390" height="159" as="geometry">
            <mxRectangle width="390" height="159" as="alternateBounds" />
          </mxGeometry>
        </mxCell>
        <mxCell id="3aoIbauwGQhiMYkhEZc1-152" value="" style="shape=tableRow;horizontal=0;startSize=0;swimlaneHead=0;swimlaneBody=0;fillColor=none;collapsible=0;dropTarget=0;points=[[0,0.5],[1,0.5]];portConstraint=eastwest;top=0;left=0;right=0;bottom=0;" vertex="1" parent="3aoIbauwGQhiMYkhEZc1-136">
          <mxGeometry y="349" width="470" height="30" as="geometry" />
        </mxCell>
        <mxCell id="3aoIbauwGQhiMYkhEZc1-153" value="Postconditions" style="shape=partialRectangle;connectable=0;fillColor=none;top=0;left=0;bottom=0;right=0;editable=1;overflow=hidden;whiteSpace=wrap;html=1;" vertex="1" parent="3aoIbauwGQhiMYkhEZc1-152">
          <mxGeometry width="80" height="30" as="geometry">
            <mxRectangle width="80" height="30" as="alternateBounds" />
          </mxGeometry>
        </mxCell>
        <mxCell id="3aoIbauwGQhiMYkhEZc1-154" value="No changes" style="shape=partialRectangle;connectable=0;fillColor=none;top=0;left=0;bottom=0;right=0;align=left;spacingLeft=6;overflow=hidden;whiteSpace=wrap;html=1;" vertex="1" parent="3aoIbauwGQhiMYkhEZc1-152">
          <mxGeometry x="80" width="390" height="30" as="geometry">
            <mxRectangle width="390" height="30" as="alternateBounds" />
          </mxGeometry>
        </mxCell>
        <mxCell id="3aoIbauwGQhiMYkhEZc1-155" value="" style="shape=tableRow;horizontal=0;startSize=0;swimlaneHead=0;swimlaneBody=0;fillColor=none;collapsible=0;dropTarget=0;points=[[0,0.5],[1,0.5]];portConstraint=eastwest;top=0;left=0;right=0;bottom=0;" vertex="1" parent="3aoIbauwGQhiMYkhEZc1-136">
          <mxGeometry y="379" width="470" height="40" as="geometry" />
        </mxCell>
        <mxCell id="3aoIbauwGQhiMYkhEZc1-156" value="Exceptions" style="shape=partialRectangle;connectable=0;fillColor=none;top=0;left=0;bottom=0;right=0;editable=1;overflow=hidden;whiteSpace=wrap;html=1;" vertex="1" parent="3aoIbauwGQhiMYkhEZc1-155">
          <mxGeometry width="80" height="40" as="geometry">
            <mxRectangle width="80" height="40" as="alternateBounds" />
          </mxGeometry>
        </mxCell>
        <mxCell id="3aoIbauwGQhiMYkhEZc1-157" value="Submition of invalid or incomplete data" style="shape=partialRectangle;connectable=0;fillColor=none;top=0;left=0;bottom=0;right=0;align=left;spacingLeft=6;overflow=hidden;whiteSpace=wrap;html=1;" vertex="1" parent="3aoIbauwGQhiMYkhEZc1-155">
          <mxGeometry x="80" width="390" height="40" as="geometry">
            <mxRectangle width="390" height="40" as="alternateBounds" />
          </mxGeometry>
        </mxCell>
        <mxCell id="3aoIbauwGQhiMYkhEZc1-158" value="Remove a book" style="shape=table;startSize=20;container=1;collapsible=1;childLayout=tableLayout;fixedRows=1;rowLines=0;fontStyle=1;align=center;resizeLast=1;html=1;" vertex="1" parent="1">
          <mxGeometry x="711" y="500" width="470" height="420" as="geometry" />
        </mxCell>
        <mxCell id="3aoIbauwGQhiMYkhEZc1-159" value="" style="shape=tableRow;horizontal=0;startSize=0;swimlaneHead=0;swimlaneBody=0;fillColor=none;collapsible=0;dropTarget=0;points=[[0,0.5],[1,0.5]];portConstraint=eastwest;top=0;left=0;right=0;bottom=1;" vertex="1" parent="3aoIbauwGQhiMYkhEZc1-158">
          <mxGeometry y="20" width="470" height="30" as="geometry" />
        </mxCell>
        <mxCell id="3aoIbauwGQhiMYkhEZc1-160" value="UC05" style="shape=partialRectangle;connectable=0;fillColor=none;top=0;left=0;bottom=0;right=0;fontStyle=1;overflow=hidden;whiteSpace=wrap;html=1;" vertex="1" parent="3aoIbauwGQhiMYkhEZc1-159">
          <mxGeometry width="80" height="30" as="geometry">
            <mxRectangle width="80" height="30" as="alternateBounds" />
          </mxGeometry>
        </mxCell>
        <mxCell id="3aoIbauwGQhiMYkhEZc1-161" value="&lt;span style=&quot;text-align: center; text-wrap-mode: nowrap;&quot;&gt;Remove a book&lt;/span&gt;" style="shape=partialRectangle;connectable=0;fillColor=none;top=0;left=0;bottom=0;right=0;align=left;spacingLeft=6;fontStyle=5;overflow=hidden;whiteSpace=wrap;html=1;" vertex="1" parent="3aoIbauwGQhiMYkhEZc1-159">
          <mxGeometry x="80" width="390" height="30" as="geometry">
            <mxRectangle width="390" height="30" as="alternateBounds" />
          </mxGeometry>
        </mxCell>
        <mxCell id="3aoIbauwGQhiMYkhEZc1-162" value="" style="shape=tableRow;horizontal=0;startSize=0;swimlaneHead=0;swimlaneBody=0;fillColor=none;collapsible=0;dropTarget=0;points=[[0,0.5],[1,0.5]];portConstraint=eastwest;top=0;left=0;right=0;bottom=0;" vertex="1" parent="3aoIbauwGQhiMYkhEZc1-158">
          <mxGeometry y="50" width="470" height="30" as="geometry" />
        </mxCell>
        <mxCell id="3aoIbauwGQhiMYkhEZc1-163" value="actors" style="shape=partialRectangle;connectable=0;fillColor=none;top=0;left=0;bottom=0;right=0;editable=1;overflow=hidden;whiteSpace=wrap;html=1;" vertex="1" parent="3aoIbauwGQhiMYkhEZc1-162">
          <mxGeometry width="80" height="30" as="geometry">
            <mxRectangle width="80" height="30" as="alternateBounds" />
          </mxGeometry>
        </mxCell>
        <mxCell id="3aoIbauwGQhiMYkhEZc1-164" value="librarian" style="shape=partialRectangle;connectable=0;fillColor=none;top=0;left=0;bottom=0;right=0;align=left;spacingLeft=6;overflow=hidden;whiteSpace=wrap;html=1;" vertex="1" parent="3aoIbauwGQhiMYkhEZc1-162">
          <mxGeometry x="80" width="390" height="30" as="geometry">
            <mxRectangle width="390" height="30" as="alternateBounds" />
          </mxGeometry>
        </mxCell>
        <mxCell id="3aoIbauwGQhiMYkhEZc1-165" value="" style="shape=tableRow;horizontal=0;startSize=0;swimlaneHead=0;swimlaneBody=0;fillColor=none;collapsible=0;dropTarget=0;points=[[0,0.5],[1,0.5]];portConstraint=eastwest;top=0;left=0;right=0;bottom=0;" vertex="1" parent="3aoIbauwGQhiMYkhEZc1-158">
          <mxGeometry y="80" width="470" height="30" as="geometry" />
        </mxCell>
        <mxCell id="3aoIbauwGQhiMYkhEZc1-166" value="Preconditions" style="shape=partialRectangle;connectable=0;fillColor=none;top=0;left=0;bottom=0;right=0;editable=1;overflow=hidden;whiteSpace=wrap;html=1;" vertex="1" parent="3aoIbauwGQhiMYkhEZc1-165">
          <mxGeometry width="80" height="30" as="geometry">
            <mxRectangle width="80" height="30" as="alternateBounds" />
          </mxGeometry>
        </mxCell>
        <mxCell id="3aoIbauwGQhiMYkhEZc1-167" value="A book needs to have been created" style="shape=partialRectangle;connectable=0;fillColor=none;top=0;left=0;bottom=0;right=0;align=left;spacingLeft=6;overflow=hidden;whiteSpace=wrap;html=1;" vertex="1" parent="3aoIbauwGQhiMYkhEZc1-165">
          <mxGeometry x="80" width="390" height="30" as="geometry">
            <mxRectangle width="390" height="30" as="alternateBounds" />
          </mxGeometry>
        </mxCell>
        <mxCell id="3aoIbauwGQhiMYkhEZc1-168" value="" style="shape=tableRow;horizontal=0;startSize=0;swimlaneHead=0;swimlaneBody=0;fillColor=none;collapsible=0;dropTarget=0;points=[[0,0.5],[1,0.5]];portConstraint=eastwest;top=0;left=0;right=0;bottom=0;" vertex="1" parent="3aoIbauwGQhiMYkhEZc1-158">
          <mxGeometry y="110" width="470" height="78" as="geometry" />
        </mxCell>
        <mxCell id="3aoIbauwGQhiMYkhEZc1-169" value="Main flow" style="shape=partialRectangle;connectable=0;fillColor=none;top=0;left=0;bottom=0;right=0;editable=1;overflow=hidden;whiteSpace=wrap;html=1;" vertex="1" parent="3aoIbauwGQhiMYkhEZc1-168">
          <mxGeometry width="80" height="78" as="geometry">
            <mxRectangle width="80" height="78" as="alternateBounds" />
          </mxGeometry>
        </mxCell>
        <mxCell id="3aoIbauwGQhiMYkhEZc1-170" value="1. The actor activates the program&lt;div&gt;2. The actor writes &quot;removeBook &amp;lt;book_id&amp;gt;&quot;&lt;/div&gt;&lt;div&gt;3. The book is removed&lt;/div&gt;&lt;div&gt;4. The book id&#39;s after the removed book&#39;s are shifted by one&lt;br&gt;&lt;/div&gt;&lt;div&gt;5.Next iteration&lt;/div&gt;" style="shape=partialRectangle;connectable=0;fillColor=none;top=0;left=0;bottom=0;right=0;align=left;spacingLeft=6;overflow=hidden;whiteSpace=wrap;html=1;" vertex="1" parent="3aoIbauwGQhiMYkhEZc1-168">
          <mxGeometry x="80" width="390" height="78" as="geometry">
            <mxRectangle width="390" height="78" as="alternateBounds" />
          </mxGeometry>
        </mxCell>
        <mxCell id="3aoIbauwGQhiMYkhEZc1-171" value="" style="shape=tableRow;horizontal=0;startSize=0;swimlaneHead=0;swimlaneBody=0;fillColor=none;collapsible=0;dropTarget=0;points=[[0,0.5],[1,0.5]];portConstraint=eastwest;top=0;left=0;right=0;bottom=0;" vertex="1" parent="3aoIbauwGQhiMYkhEZc1-158">
          <mxGeometry y="188" width="470" height="142" as="geometry" />
        </mxCell>
        <mxCell id="3aoIbauwGQhiMYkhEZc1-172" value="Alternative flows" style="shape=partialRectangle;connectable=0;fillColor=none;top=0;left=0;bottom=0;right=0;editable=1;overflow=hidden;whiteSpace=wrap;html=1;" vertex="1" parent="3aoIbauwGQhiMYkhEZc1-171">
          <mxGeometry width="80" height="142" as="geometry">
            <mxRectangle width="80" height="142" as="alternateBounds" />
          </mxGeometry>
        </mxCell>
        <mxCell id="3aoIbauwGQhiMYkhEZc1-173" value="I. The actor submits invalid or incomplete data&lt;div&gt;1. The actor submits invalid or incomplete data&lt;/div&gt;&lt;div&gt;2. The error message appears&lt;/div&gt;&lt;div&gt;3. Next iteration&lt;/div&gt;&lt;div&gt;&lt;br&gt;&lt;/div&gt;&lt;div&gt;II. The book doesn&#39;t exist&lt;/div&gt;&lt;div&gt;1. The actor tries removing a non existent book&lt;/div&gt;&lt;div&gt;2. error message appears&lt;/div&gt;&lt;div&gt;3. Next iteration&lt;/div&gt;" style="shape=partialRectangle;connectable=0;fillColor=none;top=0;left=0;bottom=0;right=0;align=left;spacingLeft=6;overflow=hidden;whiteSpace=wrap;html=1;" vertex="1" parent="3aoIbauwGQhiMYkhEZc1-171">
          <mxGeometry x="80" width="390" height="142" as="geometry">
            <mxRectangle width="390" height="142" as="alternateBounds" />
          </mxGeometry>
        </mxCell>
        <mxCell id="3aoIbauwGQhiMYkhEZc1-174" value="" style="shape=tableRow;horizontal=0;startSize=0;swimlaneHead=0;swimlaneBody=0;fillColor=none;collapsible=0;dropTarget=0;points=[[0,0.5],[1,0.5]];portConstraint=eastwest;top=0;left=0;right=0;bottom=0;" vertex="1" parent="3aoIbauwGQhiMYkhEZc1-158">
          <mxGeometry y="330" width="470" height="40" as="geometry" />
        </mxCell>
        <mxCell id="3aoIbauwGQhiMYkhEZc1-175" value="Postconditions" style="shape=partialRectangle;connectable=0;fillColor=none;top=0;left=0;bottom=0;right=0;editable=1;overflow=hidden;whiteSpace=wrap;html=1;" vertex="1" parent="3aoIbauwGQhiMYkhEZc1-174">
          <mxGeometry width="80" height="40" as="geometry">
            <mxRectangle width="80" height="40" as="alternateBounds" />
          </mxGeometry>
        </mxCell>
        <mxCell id="3aoIbauwGQhiMYkhEZc1-176" value="In the Main flow Removal of a book from storage and shifting the indecies by one" style="shape=partialRectangle;connectable=0;fillColor=none;top=0;left=0;bottom=0;right=0;align=left;spacingLeft=6;overflow=hidden;whiteSpace=wrap;html=1;" vertex="1" parent="3aoIbauwGQhiMYkhEZc1-174">
          <mxGeometry x="80" width="390" height="40" as="geometry">
            <mxRectangle width="390" height="40" as="alternateBounds" />
          </mxGeometry>
        </mxCell>
        <mxCell id="3aoIbauwGQhiMYkhEZc1-177" value="" style="shape=tableRow;horizontal=0;startSize=0;swimlaneHead=0;swimlaneBody=0;fillColor=none;collapsible=0;dropTarget=0;points=[[0,0.5],[1,0.5]];portConstraint=eastwest;top=0;left=0;right=0;bottom=0;" vertex="1" parent="3aoIbauwGQhiMYkhEZc1-158">
          <mxGeometry y="370" width="470" height="40" as="geometry" />
        </mxCell>
        <mxCell id="3aoIbauwGQhiMYkhEZc1-178" value="Exceptions" style="shape=partialRectangle;connectable=0;fillColor=none;top=0;left=0;bottom=0;right=0;editable=1;overflow=hidden;whiteSpace=wrap;html=1;" vertex="1" parent="3aoIbauwGQhiMYkhEZc1-177">
          <mxGeometry width="80" height="40" as="geometry">
            <mxRectangle width="80" height="40" as="alternateBounds" />
          </mxGeometry>
        </mxCell>
        <mxCell id="3aoIbauwGQhiMYkhEZc1-179" value="Submition of invalid or incomplete data" style="shape=partialRectangle;connectable=0;fillColor=none;top=0;left=0;bottom=0;right=0;align=left;spacingLeft=6;overflow=hidden;whiteSpace=wrap;html=1;" vertex="1" parent="3aoIbauwGQhiMYkhEZc1-177">
          <mxGeometry x="80" width="390" height="40" as="geometry">
            <mxRectangle width="390" height="40" as="alternateBounds" />
          </mxGeometry>
        </mxCell>
        <mxCell id="3aoIbauwGQhiMYkhEZc1-180" value="Remove a user" style="shape=table;startSize=30;container=1;collapsible=1;childLayout=tableLayout;fixedRows=1;rowLines=0;fontStyle=1;align=center;resizeLast=1;html=1;" vertex="1" parent="1">
          <mxGeometry x="1220" y="10" width="470" height="419" as="geometry" />
        </mxCell>
        <mxCell id="3aoIbauwGQhiMYkhEZc1-181" value="" style="shape=tableRow;horizontal=0;startSize=0;swimlaneHead=0;swimlaneBody=0;fillColor=none;collapsible=0;dropTarget=0;points=[[0,0.5],[1,0.5]];portConstraint=eastwest;top=0;left=0;right=0;bottom=1;" vertex="1" parent="3aoIbauwGQhiMYkhEZc1-180">
          <mxGeometry y="30" width="470" height="30" as="geometry" />
        </mxCell>
        <mxCell id="3aoIbauwGQhiMYkhEZc1-182" value="UC06" style="shape=partialRectangle;connectable=0;fillColor=none;top=0;left=0;bottom=0;right=0;fontStyle=1;overflow=hidden;whiteSpace=wrap;html=1;" vertex="1" parent="3aoIbauwGQhiMYkhEZc1-181">
          <mxGeometry width="80" height="30" as="geometry">
            <mxRectangle width="80" height="30" as="alternateBounds" />
          </mxGeometry>
        </mxCell>
        <mxCell id="3aoIbauwGQhiMYkhEZc1-183" value="Print User info" style="shape=partialRectangle;connectable=0;fillColor=none;top=0;left=0;bottom=0;right=0;align=left;spacingLeft=6;fontStyle=5;overflow=hidden;whiteSpace=wrap;html=1;" vertex="1" parent="3aoIbauwGQhiMYkhEZc1-181">
          <mxGeometry x="80" width="390" height="30" as="geometry">
            <mxRectangle width="390" height="30" as="alternateBounds" />
          </mxGeometry>
        </mxCell>
        <mxCell id="3aoIbauwGQhiMYkhEZc1-184" value="" style="shape=tableRow;horizontal=0;startSize=0;swimlaneHead=0;swimlaneBody=0;fillColor=none;collapsible=0;dropTarget=0;points=[[0,0.5],[1,0.5]];portConstraint=eastwest;top=0;left=0;right=0;bottom=0;" vertex="1" parent="3aoIbauwGQhiMYkhEZc1-180">
          <mxGeometry y="60" width="470" height="30" as="geometry" />
        </mxCell>
        <mxCell id="3aoIbauwGQhiMYkhEZc1-185" value="actors" style="shape=partialRectangle;connectable=0;fillColor=none;top=0;left=0;bottom=0;right=0;editable=1;overflow=hidden;whiteSpace=wrap;html=1;" vertex="1" parent="3aoIbauwGQhiMYkhEZc1-184">
          <mxGeometry width="80" height="30" as="geometry">
            <mxRectangle width="80" height="30" as="alternateBounds" />
          </mxGeometry>
        </mxCell>
        <mxCell id="3aoIbauwGQhiMYkhEZc1-186" value="librarian" style="shape=partialRectangle;connectable=0;fillColor=none;top=0;left=0;bottom=0;right=0;align=left;spacingLeft=6;overflow=hidden;whiteSpace=wrap;html=1;" vertex="1" parent="3aoIbauwGQhiMYkhEZc1-184">
          <mxGeometry x="80" width="390" height="30" as="geometry">
            <mxRectangle width="390" height="30" as="alternateBounds" />
          </mxGeometry>
        </mxCell>
        <mxCell id="3aoIbauwGQhiMYkhEZc1-187" value="" style="shape=tableRow;horizontal=0;startSize=0;swimlaneHead=0;swimlaneBody=0;fillColor=none;collapsible=0;dropTarget=0;points=[[0,0.5],[1,0.5]];portConstraint=eastwest;top=0;left=0;right=0;bottom=0;" vertex="1" parent="3aoIbauwGQhiMYkhEZc1-180">
          <mxGeometry y="90" width="470" height="30" as="geometry" />
        </mxCell>
        <mxCell id="3aoIbauwGQhiMYkhEZc1-188" value="Preconditions" style="shape=partialRectangle;connectable=0;fillColor=none;top=0;left=0;bottom=0;right=0;editable=1;overflow=hidden;whiteSpace=wrap;html=1;" vertex="1" parent="3aoIbauwGQhiMYkhEZc1-187">
          <mxGeometry width="80" height="30" as="geometry">
            <mxRectangle width="80" height="30" as="alternateBounds" />
          </mxGeometry>
        </mxCell>
        <mxCell id="3aoIbauwGQhiMYkhEZc1-189" value="User needs to have been created" style="shape=partialRectangle;connectable=0;fillColor=none;top=0;left=0;bottom=0;right=0;align=left;spacingLeft=6;overflow=hidden;whiteSpace=wrap;html=1;" vertex="1" parent="3aoIbauwGQhiMYkhEZc1-187">
          <mxGeometry x="80" width="390" height="30" as="geometry">
            <mxRectangle width="390" height="30" as="alternateBounds" />
          </mxGeometry>
        </mxCell>
        <mxCell id="3aoIbauwGQhiMYkhEZc1-190" value="" style="shape=tableRow;horizontal=0;startSize=0;swimlaneHead=0;swimlaneBody=0;fillColor=none;collapsible=0;dropTarget=0;points=[[0,0.5],[1,0.5]];portConstraint=eastwest;top=0;left=0;right=0;bottom=0;" vertex="1" parent="3aoIbauwGQhiMYkhEZc1-180">
          <mxGeometry y="120" width="470" height="70" as="geometry" />
        </mxCell>
        <mxCell id="3aoIbauwGQhiMYkhEZc1-191" value="Main flow" style="shape=partialRectangle;connectable=0;fillColor=none;top=0;left=0;bottom=0;right=0;editable=1;overflow=hidden;whiteSpace=wrap;html=1;" vertex="1" parent="3aoIbauwGQhiMYkhEZc1-190">
          <mxGeometry width="80" height="70" as="geometry">
            <mxRectangle width="80" height="70" as="alternateBounds" />
          </mxGeometry>
        </mxCell>
        <mxCell id="3aoIbauwGQhiMYkhEZc1-192" value="1. The actor activates the program&lt;div&gt;2. The actor writes &quot;removeUser &amp;lt;user_id&amp;gt;&quot;&lt;/div&gt;&lt;div&gt;3. The user is removed and user id&#39;s are shifted by one&lt;/div&gt;&lt;div&gt;4. Next iteration&lt;/div&gt;" style="shape=partialRectangle;connectable=0;fillColor=none;top=0;left=0;bottom=0;right=0;align=left;spacingLeft=6;overflow=hidden;whiteSpace=wrap;html=1;" vertex="1" parent="3aoIbauwGQhiMYkhEZc1-190">
          <mxGeometry x="80" width="390" height="70" as="geometry">
            <mxRectangle width="390" height="70" as="alternateBounds" />
          </mxGeometry>
        </mxCell>
        <mxCell id="3aoIbauwGQhiMYkhEZc1-193" value="" style="shape=tableRow;horizontal=0;startSize=0;swimlaneHead=0;swimlaneBody=0;fillColor=none;collapsible=0;dropTarget=0;points=[[0,0.5],[1,0.5]];portConstraint=eastwest;top=0;left=0;right=0;bottom=0;" vertex="1" parent="3aoIbauwGQhiMYkhEZc1-180">
          <mxGeometry y="190" width="470" height="159" as="geometry" />
        </mxCell>
        <mxCell id="3aoIbauwGQhiMYkhEZc1-194" value="Alternative flows" style="shape=partialRectangle;connectable=0;fillColor=none;top=0;left=0;bottom=0;right=0;editable=1;overflow=hidden;whiteSpace=wrap;html=1;" vertex="1" parent="3aoIbauwGQhiMYkhEZc1-193">
          <mxGeometry width="80" height="159" as="geometry">
            <mxRectangle width="80" height="159" as="alternateBounds" />
          </mxGeometry>
        </mxCell>
        <mxCell id="3aoIbauwGQhiMYkhEZc1-195" value="I. The actor submits invalid or incomplete data&lt;div&gt;1. The actor submits invalid or incomplete data&lt;/div&gt;&lt;div&gt;2. The error message appears&lt;/div&gt;&lt;div&gt;3. Next iteration&lt;/div&gt;&lt;div&gt;&lt;br&gt;&lt;/div&gt;&lt;div&gt;&lt;div&gt;II. The user doesn&#39;t exist&lt;/div&gt;&lt;div&gt;1. The actor tries to remove a non existent user&lt;/div&gt;&lt;div&gt;2. error message appears&lt;/div&gt;&lt;div&gt;3. next iteration&lt;/div&gt;&lt;/div&gt;" style="shape=partialRectangle;connectable=0;fillColor=none;top=0;left=0;bottom=0;right=0;align=left;spacingLeft=6;overflow=hidden;whiteSpace=wrap;html=1;" vertex="1" parent="3aoIbauwGQhiMYkhEZc1-193">
          <mxGeometry x="80" width="390" height="159" as="geometry">
            <mxRectangle width="390" height="159" as="alternateBounds" />
          </mxGeometry>
        </mxCell>
        <mxCell id="3aoIbauwGQhiMYkhEZc1-196" value="" style="shape=tableRow;horizontal=0;startSize=0;swimlaneHead=0;swimlaneBody=0;fillColor=none;collapsible=0;dropTarget=0;points=[[0,0.5],[1,0.5]];portConstraint=eastwest;top=0;left=0;right=0;bottom=0;" vertex="1" parent="3aoIbauwGQhiMYkhEZc1-180">
          <mxGeometry y="349" width="470" height="30" as="geometry" />
        </mxCell>
        <mxCell id="3aoIbauwGQhiMYkhEZc1-197" value="Postconditions" style="shape=partialRectangle;connectable=0;fillColor=none;top=0;left=0;bottom=0;right=0;editable=1;overflow=hidden;whiteSpace=wrap;html=1;" vertex="1" parent="3aoIbauwGQhiMYkhEZc1-196">
          <mxGeometry width="80" height="30" as="geometry">
            <mxRectangle width="80" height="30" as="alternateBounds" />
          </mxGeometry>
        </mxCell>
        <mxCell id="3aoIbauwGQhiMYkhEZc1-198" value="The removal of the user and shifting of the indecies by one" style="shape=partialRectangle;connectable=0;fillColor=none;top=0;left=0;bottom=0;right=0;align=left;spacingLeft=6;overflow=hidden;whiteSpace=wrap;html=1;" vertex="1" parent="3aoIbauwGQhiMYkhEZc1-196">
          <mxGeometry x="80" width="390" height="30" as="geometry">
            <mxRectangle width="390" height="30" as="alternateBounds" />
          </mxGeometry>
        </mxCell>
        <mxCell id="3aoIbauwGQhiMYkhEZc1-199" value="" style="shape=tableRow;horizontal=0;startSize=0;swimlaneHead=0;swimlaneBody=0;fillColor=none;collapsible=0;dropTarget=0;points=[[0,0.5],[1,0.5]];portConstraint=eastwest;top=0;left=0;right=0;bottom=0;" vertex="1" parent="3aoIbauwGQhiMYkhEZc1-180">
          <mxGeometry y="379" width="470" height="40" as="geometry" />
        </mxCell>
        <mxCell id="3aoIbauwGQhiMYkhEZc1-200" value="Exceptions" style="shape=partialRectangle;connectable=0;fillColor=none;top=0;left=0;bottom=0;right=0;editable=1;overflow=hidden;whiteSpace=wrap;html=1;" vertex="1" parent="3aoIbauwGQhiMYkhEZc1-199">
          <mxGeometry width="80" height="40" as="geometry">
            <mxRectangle width="80" height="40" as="alternateBounds" />
          </mxGeometry>
        </mxCell>
        <mxCell id="3aoIbauwGQhiMYkhEZc1-201" value="Submition of invalid or incomplete data" style="shape=partialRectangle;connectable=0;fillColor=none;top=0;left=0;bottom=0;right=0;align=left;spacingLeft=6;overflow=hidden;whiteSpace=wrap;html=1;" vertex="1" parent="3aoIbauwGQhiMYkhEZc1-199">
          <mxGeometry x="80" width="390" height="40" as="geometry">
            <mxRectangle width="390" height="40" as="alternateBounds" />
          </mxGeometry>
        </mxCell>
        <mxCell id="3aoIbauwGQhiMYkhEZc1-202" value="Mark a returned book" style="shape=table;startSize=30;container=1;collapsible=1;childLayout=tableLayout;fixedRows=1;rowLines=0;fontStyle=1;align=center;resizeLast=1;html=1;" vertex="1" parent="1">
          <mxGeometry x="1220" y="500" width="470" height="670" as="geometry" />
        </mxCell>
        <mxCell id="3aoIbauwGQhiMYkhEZc1-203" value="" style="shape=tableRow;horizontal=0;startSize=0;swimlaneHead=0;swimlaneBody=0;fillColor=none;collapsible=0;dropTarget=0;points=[[0,0.5],[1,0.5]];portConstraint=eastwest;top=0;left=0;right=0;bottom=1;" vertex="1" parent="3aoIbauwGQhiMYkhEZc1-202">
          <mxGeometry y="30" width="470" height="30" as="geometry" />
        </mxCell>
        <mxCell id="3aoIbauwGQhiMYkhEZc1-204" value="UC07" style="shape=partialRectangle;connectable=0;fillColor=none;top=0;left=0;bottom=0;right=0;fontStyle=1;overflow=hidden;whiteSpace=wrap;html=1;" vertex="1" parent="3aoIbauwGQhiMYkhEZc1-203">
          <mxGeometry width="80" height="30" as="geometry">
            <mxRectangle width="80" height="30" as="alternateBounds" />
          </mxGeometry>
        </mxCell>
        <mxCell id="3aoIbauwGQhiMYkhEZc1-205" value="Mark a returned book" style="shape=partialRectangle;connectable=0;fillColor=none;top=0;left=0;bottom=0;right=0;align=left;spacingLeft=6;fontStyle=5;overflow=hidden;whiteSpace=wrap;html=1;" vertex="1" parent="3aoIbauwGQhiMYkhEZc1-203">
          <mxGeometry x="80" width="390" height="30" as="geometry">
            <mxRectangle width="390" height="30" as="alternateBounds" />
          </mxGeometry>
        </mxCell>
        <mxCell id="3aoIbauwGQhiMYkhEZc1-206" value="" style="shape=tableRow;horizontal=0;startSize=0;swimlaneHead=0;swimlaneBody=0;fillColor=none;collapsible=0;dropTarget=0;points=[[0,0.5],[1,0.5]];portConstraint=eastwest;top=0;left=0;right=0;bottom=0;" vertex="1" parent="3aoIbauwGQhiMYkhEZc1-202">
          <mxGeometry y="60" width="470" height="30" as="geometry" />
        </mxCell>
        <mxCell id="3aoIbauwGQhiMYkhEZc1-207" value="actors" style="shape=partialRectangle;connectable=0;fillColor=none;top=0;left=0;bottom=0;right=0;editable=1;overflow=hidden;whiteSpace=wrap;html=1;" vertex="1" parent="3aoIbauwGQhiMYkhEZc1-206">
          <mxGeometry width="80" height="30" as="geometry">
            <mxRectangle width="80" height="30" as="alternateBounds" />
          </mxGeometry>
        </mxCell>
        <mxCell id="3aoIbauwGQhiMYkhEZc1-208" value="librarian" style="shape=partialRectangle;connectable=0;fillColor=none;top=0;left=0;bottom=0;right=0;align=left;spacingLeft=6;overflow=hidden;whiteSpace=wrap;html=1;" vertex="1" parent="3aoIbauwGQhiMYkhEZc1-206">
          <mxGeometry x="80" width="390" height="30" as="geometry">
            <mxRectangle width="390" height="30" as="alternateBounds" />
          </mxGeometry>
        </mxCell>
        <mxCell id="3aoIbauwGQhiMYkhEZc1-209" value="" style="shape=tableRow;horizontal=0;startSize=0;swimlaneHead=0;swimlaneBody=0;fillColor=none;collapsible=0;dropTarget=0;points=[[0,0.5],[1,0.5]];portConstraint=eastwest;top=0;left=0;right=0;bottom=0;" vertex="1" parent="3aoIbauwGQhiMYkhEZc1-202">
          <mxGeometry y="90" width="470" height="40" as="geometry" />
        </mxCell>
        <mxCell id="3aoIbauwGQhiMYkhEZc1-210" value="Preconditions" style="shape=partialRectangle;connectable=0;fillColor=none;top=0;left=0;bottom=0;right=0;editable=1;overflow=hidden;whiteSpace=wrap;html=1;" vertex="1" parent="3aoIbauwGQhiMYkhEZc1-209">
          <mxGeometry width="80" height="40" as="geometry">
            <mxRectangle width="80" height="40" as="alternateBounds" />
          </mxGeometry>
        </mxCell>
        <mxCell id="3aoIbauwGQhiMYkhEZc1-211" value="The book needs to have been created and loaned and assigned to an existing user" style="shape=partialRectangle;connectable=0;fillColor=none;top=0;left=0;bottom=0;right=0;align=left;spacingLeft=6;overflow=hidden;whiteSpace=wrap;html=1;" vertex="1" parent="3aoIbauwGQhiMYkhEZc1-209">
          <mxGeometry x="80" width="390" height="40" as="geometry">
            <mxRectangle width="390" height="40" as="alternateBounds" />
          </mxGeometry>
        </mxCell>
        <mxCell id="3aoIbauwGQhiMYkhEZc1-212" value="" style="shape=tableRow;horizontal=0;startSize=0;swimlaneHead=0;swimlaneBody=0;fillColor=none;collapsible=0;dropTarget=0;points=[[0,0.5],[1,0.5]];portConstraint=eastwest;top=0;left=0;right=0;bottom=0;" vertex="1" parent="3aoIbauwGQhiMYkhEZc1-202">
          <mxGeometry y="130" width="470" height="90" as="geometry" />
        </mxCell>
        <mxCell id="3aoIbauwGQhiMYkhEZc1-213" value="Main flow" style="shape=partialRectangle;connectable=0;fillColor=none;top=0;left=0;bottom=0;right=0;editable=1;overflow=hidden;whiteSpace=wrap;html=1;" vertex="1" parent="3aoIbauwGQhiMYkhEZc1-212">
          <mxGeometry width="80" height="90" as="geometry">
            <mxRectangle width="80" height="90" as="alternateBounds" />
          </mxGeometry>
        </mxCell>
        <mxCell id="3aoIbauwGQhiMYkhEZc1-214" value="1. The actor activates the program&lt;div&gt;2. The actor writes &quot;returnBook &amp;lt;book_id, user_id&amp;gt;&quot;&lt;/div&gt;&lt;div&gt;3. The book is marked as available and removed from user&#39;s loaned books&lt;/div&gt;&lt;div&gt;4. Next iteration&lt;/div&gt;" style="shape=partialRectangle;connectable=0;fillColor=none;top=0;left=0;bottom=0;right=0;align=left;spacingLeft=6;overflow=hidden;whiteSpace=wrap;html=1;" vertex="1" parent="3aoIbauwGQhiMYkhEZc1-212">
          <mxGeometry x="80" width="390" height="90" as="geometry">
            <mxRectangle width="390" height="90" as="alternateBounds" />
          </mxGeometry>
        </mxCell>
        <mxCell id="3aoIbauwGQhiMYkhEZc1-215" value="" style="shape=tableRow;horizontal=0;startSize=0;swimlaneHead=0;swimlaneBody=0;fillColor=none;collapsible=0;dropTarget=0;points=[[0,0.5],[1,0.5]];portConstraint=eastwest;top=0;left=0;right=0;bottom=0;" vertex="1" parent="3aoIbauwGQhiMYkhEZc1-202">
          <mxGeometry y="220" width="470" height="370" as="geometry" />
        </mxCell>
        <mxCell id="3aoIbauwGQhiMYkhEZc1-216" value="Alternative flows" style="shape=partialRectangle;connectable=0;fillColor=none;top=0;left=0;bottom=0;right=0;editable=1;overflow=hidden;whiteSpace=wrap;html=1;" vertex="1" parent="3aoIbauwGQhiMYkhEZc1-215">
          <mxGeometry width="80" height="370" as="geometry">
            <mxRectangle width="80" height="370" as="alternateBounds" />
          </mxGeometry>
        </mxCell>
        <mxCell id="3aoIbauwGQhiMYkhEZc1-217" value="I. The actor submits invalid or incomplete data&lt;div&gt;1. The actor submits invalid or incomplete data&lt;/div&gt;&lt;div&gt;2. The error message appears&lt;/div&gt;&lt;div&gt;3. Next iteration&lt;/div&gt;&lt;div&gt;&lt;br&gt;&lt;/div&gt;&lt;div&gt;&lt;div&gt;II. The book doesn&#39;t exist&lt;/div&gt;&lt;div&gt;1. The actor tries to mark as returned a non existent book&lt;/div&gt;&lt;div&gt;2. error message appears&lt;/div&gt;&lt;div&gt;3. next iteration&lt;/div&gt;&lt;/div&gt;&lt;div&gt;&lt;br&gt;&lt;/div&gt;&lt;div&gt;III. The user doesn&#39;t exist&lt;/div&gt;&lt;div&gt;1.&amp;nbsp;&lt;span style=&quot;background-color: initial;&quot;&gt;The actor tries to mark as returned a non existent&amp;nbsp; user&lt;/span&gt;&lt;/div&gt;&lt;div&gt;&lt;span style=&quot;background-color: initial;&quot;&gt;2. error message appears&lt;/span&gt;&lt;/div&gt;&lt;div&gt;&lt;span style=&quot;background-color: initial;&quot;&gt;3. next iteration&lt;/span&gt;&lt;/div&gt;&lt;div&gt;&lt;span style=&quot;background-color: initial;&quot;&gt;&lt;br&gt;&lt;/span&gt;&lt;/div&gt;&lt;div&gt;&lt;span style=&quot;background-color: initial;&quot;&gt;IV. The book isn&#39;t leased&lt;/span&gt;&lt;/div&gt;&lt;div&gt;&lt;span style=&quot;background-color: initial;&quot;&gt;1.&amp;nbsp;&lt;/span&gt;&lt;span style=&quot;background-color: initial;&quot;&gt;The actor tries to mark as returned a non leased book&lt;/span&gt;&lt;/div&gt;&lt;div&gt;&lt;span style=&quot;background-color: initial;&quot;&gt;2. error message appears&lt;/span&gt;&lt;/div&gt;&lt;div&gt;&lt;span style=&quot;background-color: initial;&quot;&gt;3. next iteration&lt;/span&gt;&lt;/div&gt;&lt;div&gt;&lt;span style=&quot;background-color: initial;&quot;&gt;&lt;br&gt;&lt;/span&gt;&lt;/div&gt;&lt;div&gt;&lt;span style=&quot;background-color: initial;&quot;&gt;V. The book is leased by other user&lt;/span&gt;&lt;/div&gt;&lt;div&gt;&lt;span style=&quot;background-color: initial;&quot;&gt;1. The actor tries to mark as returned a book to a wrong user&lt;/span&gt;&lt;/div&gt;&lt;div&gt;&lt;span style=&quot;background-color: initial;&quot;&gt;2. error message appears&lt;/span&gt;&lt;/div&gt;&lt;div&gt;&lt;span style=&quot;background-color: initial;&quot;&gt;3. next iteration&lt;/span&gt;&lt;/div&gt;" style="shape=partialRectangle;connectable=0;fillColor=none;top=0;left=0;bottom=0;right=0;align=left;spacingLeft=6;overflow=hidden;whiteSpace=wrap;html=1;" vertex="1" parent="3aoIbauwGQhiMYkhEZc1-215">
          <mxGeometry x="80" width="390" height="370" as="geometry">
            <mxRectangle width="390" height="370" as="alternateBounds" />
          </mxGeometry>
        </mxCell>
        <mxCell id="3aoIbauwGQhiMYkhEZc1-218" value="" style="shape=tableRow;horizontal=0;startSize=0;swimlaneHead=0;swimlaneBody=0;fillColor=none;collapsible=0;dropTarget=0;points=[[0,0.5],[1,0.5]];portConstraint=eastwest;top=0;left=0;right=0;bottom=0;" vertex="1" parent="3aoIbauwGQhiMYkhEZc1-202">
          <mxGeometry y="590" width="470" height="30" as="geometry" />
        </mxCell>
        <mxCell id="3aoIbauwGQhiMYkhEZc1-219" value="Postconditions" style="shape=partialRectangle;connectable=0;fillColor=none;top=0;left=0;bottom=0;right=0;editable=1;overflow=hidden;whiteSpace=wrap;html=1;" vertex="1" parent="3aoIbauwGQhiMYkhEZc1-218">
          <mxGeometry width="80" height="30" as="geometry">
            <mxRectangle width="80" height="30" as="alternateBounds" />
          </mxGeometry>
        </mxCell>
        <mxCell id="3aoIbauwGQhiMYkhEZc1-220" value="The book is marked as available and removed from the user&#39;s list" style="shape=partialRectangle;connectable=0;fillColor=none;top=0;left=0;bottom=0;right=0;align=left;spacingLeft=6;overflow=hidden;whiteSpace=wrap;html=1;" vertex="1" parent="3aoIbauwGQhiMYkhEZc1-218">
          <mxGeometry x="80" width="390" height="30" as="geometry">
            <mxRectangle width="390" height="30" as="alternateBounds" />
          </mxGeometry>
        </mxCell>
        <mxCell id="3aoIbauwGQhiMYkhEZc1-221" value="" style="shape=tableRow;horizontal=0;startSize=0;swimlaneHead=0;swimlaneBody=0;fillColor=none;collapsible=0;dropTarget=0;points=[[0,0.5],[1,0.5]];portConstraint=eastwest;top=0;left=0;right=0;bottom=0;" vertex="1" parent="3aoIbauwGQhiMYkhEZc1-202">
          <mxGeometry y="620" width="470" height="50" as="geometry" />
        </mxCell>
        <mxCell id="3aoIbauwGQhiMYkhEZc1-222" value="Exceptions" style="shape=partialRectangle;connectable=0;fillColor=none;top=0;left=0;bottom=0;right=0;editable=1;overflow=hidden;whiteSpace=wrap;html=1;" vertex="1" parent="3aoIbauwGQhiMYkhEZc1-221">
          <mxGeometry width="80" height="50" as="geometry">
            <mxRectangle width="80" height="50" as="alternateBounds" />
          </mxGeometry>
        </mxCell>
        <mxCell id="3aoIbauwGQhiMYkhEZc1-223" value="Submition of invalid or incomplete data" style="shape=partialRectangle;connectable=0;fillColor=none;top=0;left=0;bottom=0;right=0;align=left;spacingLeft=6;overflow=hidden;whiteSpace=wrap;html=1;" vertex="1" parent="3aoIbauwGQhiMYkhEZc1-221">
          <mxGeometry x="80" width="390" height="50" as="geometry">
            <mxRectangle width="390" height="50" as="alternateBounds" />
          </mxGeometry>
        </mxCell>
        <mxCell id="3aoIbauwGQhiMYkhEZc1-224" value="Loan a book" style="shape=table;startSize=30;container=1;collapsible=1;childLayout=tableLayout;fixedRows=1;rowLines=0;fontStyle=1;align=center;resizeLast=1;html=1;" vertex="1" parent="1">
          <mxGeometry x="1730" y="10" width="470" height="628" as="geometry" />
        </mxCell>
        <mxCell id="3aoIbauwGQhiMYkhEZc1-225" value="" style="shape=tableRow;horizontal=0;startSize=0;swimlaneHead=0;swimlaneBody=0;fillColor=none;collapsible=0;dropTarget=0;points=[[0,0.5],[1,0.5]];portConstraint=eastwest;top=0;left=0;right=0;bottom=1;" vertex="1" parent="3aoIbauwGQhiMYkhEZc1-224">
          <mxGeometry y="30" width="470" height="30" as="geometry" />
        </mxCell>
        <mxCell id="3aoIbauwGQhiMYkhEZc1-226" value="UC08" style="shape=partialRectangle;connectable=0;fillColor=none;top=0;left=0;bottom=0;right=0;fontStyle=1;overflow=hidden;whiteSpace=wrap;html=1;" vertex="1" parent="3aoIbauwGQhiMYkhEZc1-225">
          <mxGeometry width="80" height="30" as="geometry">
            <mxRectangle width="80" height="30" as="alternateBounds" />
          </mxGeometry>
        </mxCell>
        <mxCell id="3aoIbauwGQhiMYkhEZc1-227" value="Loan a book" style="shape=partialRectangle;connectable=0;fillColor=none;top=0;left=0;bottom=0;right=0;align=left;spacingLeft=6;fontStyle=5;overflow=hidden;whiteSpace=wrap;html=1;" vertex="1" parent="3aoIbauwGQhiMYkhEZc1-225">
          <mxGeometry x="80" width="390" height="30" as="geometry">
            <mxRectangle width="390" height="30" as="alternateBounds" />
          </mxGeometry>
        </mxCell>
        <mxCell id="3aoIbauwGQhiMYkhEZc1-228" value="" style="shape=tableRow;horizontal=0;startSize=0;swimlaneHead=0;swimlaneBody=0;fillColor=none;collapsible=0;dropTarget=0;points=[[0,0.5],[1,0.5]];portConstraint=eastwest;top=0;left=0;right=0;bottom=0;" vertex="1" parent="3aoIbauwGQhiMYkhEZc1-224">
          <mxGeometry y="60" width="470" height="30" as="geometry" />
        </mxCell>
        <mxCell id="3aoIbauwGQhiMYkhEZc1-229" value="actors" style="shape=partialRectangle;connectable=0;fillColor=none;top=0;left=0;bottom=0;right=0;editable=1;overflow=hidden;whiteSpace=wrap;html=1;" vertex="1" parent="3aoIbauwGQhiMYkhEZc1-228">
          <mxGeometry width="80" height="30" as="geometry">
            <mxRectangle width="80" height="30" as="alternateBounds" />
          </mxGeometry>
        </mxCell>
        <mxCell id="3aoIbauwGQhiMYkhEZc1-230" value="librarian" style="shape=partialRectangle;connectable=0;fillColor=none;top=0;left=0;bottom=0;right=0;align=left;spacingLeft=6;overflow=hidden;whiteSpace=wrap;html=1;" vertex="1" parent="3aoIbauwGQhiMYkhEZc1-228">
          <mxGeometry x="80" width="390" height="30" as="geometry">
            <mxRectangle width="390" height="30" as="alternateBounds" />
          </mxGeometry>
        </mxCell>
        <mxCell id="3aoIbauwGQhiMYkhEZc1-231" value="" style="shape=tableRow;horizontal=0;startSize=0;swimlaneHead=0;swimlaneBody=0;fillColor=none;collapsible=0;dropTarget=0;points=[[0,0.5],[1,0.5]];portConstraint=eastwest;top=0;left=0;right=0;bottom=0;" vertex="1" parent="3aoIbauwGQhiMYkhEZc1-224">
          <mxGeometry y="90" width="470" height="40" as="geometry" />
        </mxCell>
        <mxCell id="3aoIbauwGQhiMYkhEZc1-232" value="Preconditions" style="shape=partialRectangle;connectable=0;fillColor=none;top=0;left=0;bottom=0;right=0;editable=1;overflow=hidden;whiteSpace=wrap;html=1;" vertex="1" parent="3aoIbauwGQhiMYkhEZc1-231">
          <mxGeometry width="80" height="40" as="geometry">
            <mxRectangle width="80" height="40" as="alternateBounds" />
          </mxGeometry>
        </mxCell>
        <mxCell id="3aoIbauwGQhiMYkhEZc1-233" value="The book needs to have been created and not loaned, the user needs to exist" style="shape=partialRectangle;connectable=0;fillColor=none;top=0;left=0;bottom=0;right=0;align=left;spacingLeft=6;overflow=hidden;whiteSpace=wrap;html=1;" vertex="1" parent="3aoIbauwGQhiMYkhEZc1-231">
          <mxGeometry x="80" width="390" height="40" as="geometry">
            <mxRectangle width="390" height="40" as="alternateBounds" />
          </mxGeometry>
        </mxCell>
        <mxCell id="3aoIbauwGQhiMYkhEZc1-234" value="" style="shape=tableRow;horizontal=0;startSize=0;swimlaneHead=0;swimlaneBody=0;fillColor=none;collapsible=0;dropTarget=0;points=[[0,0.5],[1,0.5]];portConstraint=eastwest;top=0;left=0;right=0;bottom=0;" vertex="1" parent="3aoIbauwGQhiMYkhEZc1-224">
          <mxGeometry y="130" width="470" height="90" as="geometry" />
        </mxCell>
        <mxCell id="3aoIbauwGQhiMYkhEZc1-235" value="Main flow" style="shape=partialRectangle;connectable=0;fillColor=none;top=0;left=0;bottom=0;right=0;editable=1;overflow=hidden;whiteSpace=wrap;html=1;" vertex="1" parent="3aoIbauwGQhiMYkhEZc1-234">
          <mxGeometry width="80" height="90" as="geometry">
            <mxRectangle width="80" height="90" as="alternateBounds" />
          </mxGeometry>
        </mxCell>
        <mxCell id="3aoIbauwGQhiMYkhEZc1-236" value="1. The actor activates the program&lt;div&gt;2. The actor writes &quot;loanBook &amp;lt;book_id, user_id&amp;gt;&quot;&lt;/div&gt;&lt;div&gt;3. The book is marked as unavailable and added to user&#39;s loaned books&lt;/div&gt;&lt;div&gt;4. Next iteration&lt;/div&gt;" style="shape=partialRectangle;connectable=0;fillColor=none;top=0;left=0;bottom=0;right=0;align=left;spacingLeft=6;overflow=hidden;whiteSpace=wrap;html=1;" vertex="1" parent="3aoIbauwGQhiMYkhEZc1-234">
          <mxGeometry x="80" width="390" height="90" as="geometry">
            <mxRectangle width="390" height="90" as="alternateBounds" />
          </mxGeometry>
        </mxCell>
        <mxCell id="3aoIbauwGQhiMYkhEZc1-237" value="" style="shape=tableRow;horizontal=0;startSize=0;swimlaneHead=0;swimlaneBody=0;fillColor=none;collapsible=0;dropTarget=0;points=[[0,0.5],[1,0.5]];portConstraint=eastwest;top=0;left=0;right=0;bottom=0;" vertex="1" parent="3aoIbauwGQhiMYkhEZc1-224">
          <mxGeometry y="220" width="470" height="328" as="geometry" />
        </mxCell>
        <mxCell id="3aoIbauwGQhiMYkhEZc1-238" value="Alternative flows" style="shape=partialRectangle;connectable=0;fillColor=none;top=0;left=0;bottom=0;right=0;editable=1;overflow=hidden;whiteSpace=wrap;html=1;" vertex="1" parent="3aoIbauwGQhiMYkhEZc1-237">
          <mxGeometry width="80" height="328" as="geometry">
            <mxRectangle width="80" height="328" as="alternateBounds" />
          </mxGeometry>
        </mxCell>
        <mxCell id="3aoIbauwGQhiMYkhEZc1-239" value="I. The actor submits invalid or incomplete data&lt;div&gt;1. The actor submits invalid or incomplete data&lt;/div&gt;&lt;div&gt;2. The error message appears&lt;/div&gt;&lt;div&gt;3. Next iteration&lt;/div&gt;&lt;div&gt;&lt;br&gt;&lt;/div&gt;&lt;div&gt;&lt;div&gt;II. The book doesn&#39;t exist&lt;/div&gt;&lt;div&gt;1. The actor tries to loan a non existent book&lt;/div&gt;&lt;div&gt;2. error message appears&lt;/div&gt;&lt;div&gt;3. next iteration&lt;/div&gt;&lt;/div&gt;&lt;div&gt;&lt;br&gt;&lt;/div&gt;&lt;div&gt;III. The user doesn&#39;t exist&lt;/div&gt;&lt;div&gt;1.&amp;nbsp;&lt;span style=&quot;background-color: initial;&quot;&gt;The actor tries to loan a book to a non existent&amp;nbsp; user&lt;/span&gt;&lt;/div&gt;&lt;div&gt;&lt;span style=&quot;background-color: initial;&quot;&gt;2. error message appears&lt;/span&gt;&lt;/div&gt;&lt;div&gt;&lt;span style=&quot;background-color: initial;&quot;&gt;3. next iteration&lt;/span&gt;&lt;/div&gt;&lt;div&gt;&lt;span style=&quot;background-color: initial;&quot;&gt;&lt;br&gt;&lt;/span&gt;&lt;/div&gt;&lt;div&gt;&lt;span style=&quot;background-color: initial;&quot;&gt;IV. The book is leased&lt;/span&gt;&lt;/div&gt;&lt;div&gt;&lt;span style=&quot;background-color: initial;&quot;&gt;1.&amp;nbsp;&lt;/span&gt;&lt;span style=&quot;background-color: initial;&quot;&gt;The actor tries to loan an already loaned book&lt;/span&gt;&lt;/div&gt;&lt;div&gt;&lt;span style=&quot;background-color: initial;&quot;&gt;2. error message appears&lt;/span&gt;&lt;/div&gt;&lt;div&gt;&lt;span style=&quot;background-color: initial;&quot;&gt;3. next iteration&lt;/span&gt;&lt;/div&gt;" style="shape=partialRectangle;connectable=0;fillColor=none;top=0;left=0;bottom=0;right=0;align=left;spacingLeft=6;overflow=hidden;whiteSpace=wrap;html=1;" vertex="1" parent="3aoIbauwGQhiMYkhEZc1-237">
          <mxGeometry x="80" width="390" height="328" as="geometry">
            <mxRectangle width="390" height="328" as="alternateBounds" />
          </mxGeometry>
        </mxCell>
        <mxCell id="3aoIbauwGQhiMYkhEZc1-240" value="" style="shape=tableRow;horizontal=0;startSize=0;swimlaneHead=0;swimlaneBody=0;fillColor=none;collapsible=0;dropTarget=0;points=[[0,0.5],[1,0.5]];portConstraint=eastwest;top=0;left=0;right=0;bottom=0;" vertex="1" parent="3aoIbauwGQhiMYkhEZc1-224">
          <mxGeometry y="548" width="470" height="30" as="geometry" />
        </mxCell>
        <mxCell id="3aoIbauwGQhiMYkhEZc1-241" value="Postconditions" style="shape=partialRectangle;connectable=0;fillColor=none;top=0;left=0;bottom=0;right=0;editable=1;overflow=hidden;whiteSpace=wrap;html=1;" vertex="1" parent="3aoIbauwGQhiMYkhEZc1-240">
          <mxGeometry width="80" height="30" as="geometry">
            <mxRectangle width="80" height="30" as="alternateBounds" />
          </mxGeometry>
        </mxCell>
        <mxCell id="3aoIbauwGQhiMYkhEZc1-242" value="The book is marked as unavailable and added to the user&#39;s list" style="shape=partialRectangle;connectable=0;fillColor=none;top=0;left=0;bottom=0;right=0;align=left;spacingLeft=6;overflow=hidden;whiteSpace=wrap;html=1;" vertex="1" parent="3aoIbauwGQhiMYkhEZc1-240">
          <mxGeometry x="80" width="390" height="30" as="geometry">
            <mxRectangle width="390" height="30" as="alternateBounds" />
          </mxGeometry>
        </mxCell>
        <mxCell id="3aoIbauwGQhiMYkhEZc1-243" value="" style="shape=tableRow;horizontal=0;startSize=0;swimlaneHead=0;swimlaneBody=0;fillColor=none;collapsible=0;dropTarget=0;points=[[0,0.5],[1,0.5]];portConstraint=eastwest;top=0;left=0;right=0;bottom=0;" vertex="1" parent="3aoIbauwGQhiMYkhEZc1-224">
          <mxGeometry y="578" width="470" height="50" as="geometry" />
        </mxCell>
        <mxCell id="3aoIbauwGQhiMYkhEZc1-244" value="Exceptions" style="shape=partialRectangle;connectable=0;fillColor=none;top=0;left=0;bottom=0;right=0;editable=1;overflow=hidden;whiteSpace=wrap;html=1;" vertex="1" parent="3aoIbauwGQhiMYkhEZc1-243">
          <mxGeometry width="80" height="50" as="geometry">
            <mxRectangle width="80" height="50" as="alternateBounds" />
          </mxGeometry>
        </mxCell>
        <mxCell id="3aoIbauwGQhiMYkhEZc1-245" value="Submition of invalid or incomplete data" style="shape=partialRectangle;connectable=0;fillColor=none;top=0;left=0;bottom=0;right=0;align=left;spacingLeft=6;overflow=hidden;whiteSpace=wrap;html=1;" vertex="1" parent="3aoIbauwGQhiMYkhEZc1-243">
          <mxGeometry x="80" width="390" height="50" as="geometry">
            <mxRectangle width="390" height="50" as="alternateBounds" />
          </mxGeometry>
        </mxCell>
      </root>
    </mxGraphModel>
  </diagram>
</mxfile>
